<?xml version="1.0" standalone="no"?> <!DOCTYPE svg PUBLIC "-//W3C//DTD SVG 1.0//EN" "http://www.w3.org/TR/2001/REC-SVG-20010904/DTD/svg10.dtd" > <svg xmlns="http://www.w3.org/2000/svg" width="100%" height="100%">
<defs >
<font horiz-adv-x="562" ><font-face
    font-family="Stag Web"
    units-per-em="1000"
    panose-1="2 0 7 3 6 0 0 2 0 4"
    ascent="838"
    descent="-162"
    alphabetic="0" />
<missing-glyph horiz-adv-x="391" />
<glyph unicode=" " glyph-name="space" horiz-adv-x="155" />
<glyph unicode="!" glyph-name="exclam" horiz-adv-x="223" d="M19 595V700H203V595L154 212H68L19 595ZM111 -6Q92 -6 76 0T47 19T27 47T20 81Q20 99 27 115T46 143T75 162T111 169Q149 169 175 144T202 81Q202 44 176 19T111 -6Z" />
<glyph unicode="&quot;" glyph-name="quotedbl" horiz-adv-x="392" d="M19 615V700H179V615L142 456H56L19 615ZM213 615V700H373V615L336 456H250L213 615Z" />
<glyph unicode="#" glyph-name="numbersign" horiz-adv-x="490" d="M79 186H12V320H99L111 404H44V538H131L154 700H256L232 538H311L334 700H436L412 538H479V404H393L380 320H447V186H361L334 0H232L259 186H181L154 0H52L79 186ZM279 320L291 404H213L200 320H279Z" />
<glyph unicode="$" glyph-name="dollar" horiz-adv-x="537" d="M201 -2Q142 -1 99 6T11 22V191H115Q122 173 130 159T153 135T187 120T239 114Q289 114 315 134T342 191Q342 211 334 224T309 247T268 264T211 280Q169 291 133 305T70 344T28 404T13 493Q13 587
68 638T220 700V767H328V701Q382 699 422 692T497 674V517H397Q391 532 382 546T360 570T328 586T282 592Q232 592 205 574T178 519Q178 501 185 489T208 467T245 451T295 436Q352 421 394 404T465 363T506 304T520 218Q520 122 466 68T309 1V-102H201V-2Z" />
<glyph unicode="%" glyph-name="percent" horiz-adv-x="806" d="M191 412Q217 412 230 436T243 517Q243 575 230 599T191 624Q165 624 152 600T139 517Q139 460 152 436T191 412ZM191 329Q155 329 123 340T65 375T26 435T11 519Q11 567 25 603T65 662T122 696T191
708Q227 708 259 697T316 662T356 603T371 519Q371 471 356 435T317 376T260 341T191 329ZM597 729H701L208 -34H104L597 729ZM616 74Q642 74 654 98T667 179Q667 237 655 261T616 286Q590 286 577 262T563 179Q563 122 576 98T616 74ZM616 -8Q580 -8 548 3T490
38T451 97T436 181Q436 229 450 265T490 324T547 359T616 371Q652 371 684 360T741 325T780 265T795 181Q795 133 781 97T741 38T684 4T616 -8Z" />
<glyph unicode="&amp;" glyph-name="ampersand" horiz-adv-x="720" d="M282 -8Q148 -8 80 46T12 196Q12 235 23 265T54 320T100 361T158 393Q138 421 128 450T118 521Q118 606 176 657T339 709Q351 709 364 708T389 706T411 703T426 700H563V510H439L423 580Q414
584 405 586T378 588Q338 588 323 571T308 522Q308 493 323 472T364 424L508 278Q519 309 527 343T538 416H684V336Q669 296 651 255T608 176L659 125Q673 113 681 107T700 101H708V0H533L486 48Q446 22 396 7T282 -8ZM312 110Q361 110 401 138L232 311Q218 297
209 274T199 219Q199 171 226 141T312 110Z" />
<glyph unicode="&apos;" glyph-name="quotesingle" horiz-adv-x="204" d="M19 615V700H185V615L146 456H58L19 615Z" />
<glyph unicode="(" glyph-name="parenleft" horiz-adv-x="314" d="M240 -49Q199 -37 158 -9T85 68T33 186T13 351Q13 443 33 510T85 625T158 701T240 741H304V646Q279 637 255 619T211 566T181 480T169 351Q169 270 180 215T211 125T254 71T304 43V-49H240Z" />
<glyph unicode=")" glyph-name="parenright" horiz-adv-x="314" d="M10 43Q35 52 59 71T103 125T134 215T146 351Q146 427 134 479T103 566T60 618T10 646V741H74Q115 729 155 701T228 625T281 510T301 351Q301 256 281 186T229 68T156 -8T74 -49H10V43Z" />
<glyph unicode="*" glyph-name="asterisk" horiz-adv-x="375" d="M132 394L182 511L102 410L47 403L14 461L47 504L177 521L47 538L14 582L49 640L103 632L182 531L132 649L152 700H222L242 649L193 531L272 632L327 640L360 582L328 538L199 521L328 504L360
461L328 403L273 410L193 511L242 394L222 343H152L132 394Z" />
<glyph unicode="+" glyph-name="plus" horiz-adv-x="512" d="M186 280H13V411H186V595H328V411H499V280H328V96H186V280Z" />
<glyph unicode="," glyph-name="comma" horiz-adv-x="212" d="M15 -45Q78 -34 78 -4Q78 10 68 15T45 29Q31 39 23 53T15 92Q15 126 39 147T102 169Q140 169 169 143T198 63Q198 -21 153 -63T15 -114V-45Z" />
<glyph unicode="-" glyph-name="hyphen" horiz-adv-x="286" d="M22 361H264V237H22V361Z" />
<glyph unicode="." glyph-name="period" horiz-adv-x="212" d="M106 -6Q68 -6 42 19T16 81Q16 118 42 143T106 169Q144 169 170 144T197 81Q197 44 171 19T106 -6Z" />
<glyph unicode="/" glyph-name="slash" horiz-adv-x="346" d="M235 741H351L109 -49H-7L235 741Z" />
<glyph unicode="0" glyph-name="zero" horiz-adv-x="662" d="M331 111Q360 111 382 124T420 165T444 238T452 347Q452 411 444 455T421 528T383 568T331 581Q302 581 280 569T242 528T218 456T210 347Q210 283 218 239T241 166T279 124T331 111ZM331 -9Q267 -9
210 13T109 80T40 192T14 350Q14 440 40 507T109 619T210 686T331 709Q394 709 451 687T552 620T621 508T647 350Q647 260 622 193T553 81T453 14T331 -9Z" />
<glyph unicode="1" glyph-name="one" horiz-adv-x="394" d="M13 101H81Q91 101 100 111T109 131V540L46 509H10V614L164 700H300V131Q300 122 308 112T327 101H384V0H13V101Z" />
<glyph unicode="2" glyph-name="two" horiz-adv-x="539" d="M15 73Q15 122 29 161T69 231T125 289T192 340Q219 359 244 377T289 413T319 452T331 497Q331 535 311 557T253 580Q211 580 184 560T143 510H44V671Q90 687 146 698T271 709Q393 709 459 660T525 507Q525
459 508 423T464 359T403 308T334 266Q307 250 281 234T235 202T200 168T181 132H383L396 199H512V0H15V73Z" />
<glyph unicode="3" glyph-name="three" horiz-adv-x="527" d="M226 -9Q153 -9 103 0T10 26V172H111Q124 149 149 131T219 112Q262 112 290 135T319 206Q319 298 211 298H154V409H204Q318 409 318 500Q318 538 298 559T234 581Q193 581 169 565T130 526H34V673Q80
689 136 699T254 709Q369 709 435 666T502 526Q502 454 463 415T355 362V358Q513 336 513 194Q513 144 493 107T435 43T344 4T226 -9Z" />
<glyph unicode="4" glyph-name="four" horiz-adv-x="564" d="M229 101H271Q281 101 290 111T299 131V174H10V309L308 700H486V288H553V174H486V131Q486 122 494 112T514 101H553V0H229V101ZM303 288V524H299L125 292V288H303Z" />
<glyph unicode="5" glyph-name="five" horiz-adv-x="524" d="M226 -9Q151 -9 101 3T10 32V175H111Q125 148 150 130T219 112Q262 112 291 138T321 221Q321 276 294 301T228 327Q208 327 193 324T167 314T148 301T133 286H25V700H478V519H362L350 566H157V408H160Q178
422 210 434T293 446Q338 446 378 433T447 393T493 325T510 226Q510 169 491 126T435 52T345 7T226 -9Z" />
<glyph unicode="6" glyph-name="six" horiz-adv-x="598" d="M309 -9Q244 -9 190 11T97 74T36 181T14 335Q14 515 106 612T376 709Q433 709 475 704T545 691V547H448Q437 558 419 570T363 582Q222 582 210 381Q237 410 278 427T372 445Q418 445 456 432T523 392T568
326T584 235Q584 181 565 136T511 59T424 9T309 -9ZM305 104Q331 104 348 113T375 140T390 179T395 227Q395 331 305 331Q274 331 250 323T208 304Q210 196 232 150T305 104Z" />
<glyph unicode="7" glyph-name="seven" horiz-adv-x="517" d="M83 76L383 558V562H140L126 478H10V700H507V551L273 0H83V76Z" />
<glyph unicode="8" glyph-name="eight" horiz-adv-x="604" d="M302 -9Q162 -9 88 46T14 199Q14 266 51 308T158 372V376Q102 394 72 429T42 522Q42 566 61 600T115 659T197 696T302 709Q358 709 405 696T487 659T541 601T560 522Q560 465 531 430T445 376V372Q514
351 551 309T589 199Q589 102 515 47T302 -9ZM302 107Q354 107 377 137T401 212Q401 257 378 287T302 318Q248 318 225 288T201 212Q201 168 225 138T302 107ZM302 423Q380 423 380 506Q380 547 360 569T302 592Q263 592 243 570T222 506Q222 423 302 423Z" />
<glyph unicode="9" glyph-name="nine" horiz-adv-x="598" d="M220 -9Q163 -9 116 -2T41 14V155H136Q149 139 170 127T233 115Q306 115 343 165T387 316Q360 288 319 271T227 253Q180 253 141 267T74 308T29 375T13 468Q13 521 32 565T87 641T174 691T288 709Q353
709 407 690T501 629T561 522T583 365Q583 181 491 86T220 -9ZM292 367Q323 367 347 375T388 393Q386 503 364 548T292 594Q267 594 250 585T223 559T207 520T202 471Q202 421 224 394T292 367Z" />
<glyph unicode=":" glyph-name="colon" horiz-adv-x="212" d="M106 -6Q68 -6 42 18T16 80Q16 116 42 141T106 167Q143 167 169 142T195 80Q195 43 169 19T106 -6ZM106 280Q68 280 42 305T16 366Q16 403 42 428T106 453Q143 453 169 428T195 366Q195 330 169 305T106 280Z" />
<glyph unicode=";" glyph-name="semicolon" horiz-adv-x="212" d="M14 -44Q77 -35 77 -4Q77 10 67 15T44 29Q30 39 22 53T14 91Q14 125 38 146T100 167Q138 167 166 142T195 63Q195 -20 150 -63T14 -114V-44ZM106 280Q68 280 42 305T16 366Q16 403 42 428T106
453Q143 453 169 428T195 366Q195 330 169 305T106 280Z" />
<glyph unicode="&lt;" glyph-name="less" horiz-adv-x="452" d="M13 275V384L394 575H436V445L193 332V329L436 213V84H394L13 275Z" />
<glyph unicode="=" glyph-name="equal" horiz-adv-x="489" d="M18 273H471V144H18V273ZM18 480H471V351H18V480Z" />
<glyph unicode="&gt;" glyph-name="greater" horiz-adv-x="452" d="M17 213L259 327V330L17 446V575H58L439 383V275L58 84H17V213Z" />
<glyph unicode="?" glyph-name="question" horiz-adv-x="450" d="M119 212Q114 241 114 265T120 312T141 356T178 402Q187 412 199 424T223 452T242 484T250 521Q250 552 235 569T191 587Q160 587 142 570T112 530H11V675Q55 691 99 700T204 709Q318 709 378 661T438
521Q438 488 430 464T407 419T372 383T329 351Q303 333 283 318T249 287T229 254T224 212H119ZM180 -6Q161 -6 145 0T116 19T96 47T89 81Q89 99 96 115T115 143T144 162T180 169Q218 169 244 144T270 81Q270 44 244 19T180 -6Z" />
<glyph unicode="@" glyph-name="at" horiz-adv-x="867" d="M440 -134Q362 -134 286 -113T151 -46T56 71T19 240Q19 344 58 423T160 557T298 639T449 667Q525 667 597 645T725 581T815 478T849 337Q849 267 829 216T774 132T694 82T599 66Q537 66 506 84T463 135Q443
109 413 89T338 68Q281 68 247 102T212 201Q212 257 229 304T279 389Q307 421 345 438T430 456Q467 456 491 445T532 415Q547 429 564 439T598 450H668L612 203Q606 176 609 158T637 140Q661 140 683 152T722 188T750 250T760 337Q760 398 736 445T671 526T572
576T449 593Q386 593 326 572T219 507T144 397T115 240Q115 160 140 103T210 10T313 -43T440 -60Q515 -60 573 -45T677 0H727V-58Q678 -93 603 -113T440 -134ZM398 154Q415 154 428 161T456 183L498 361Q491 363 482 365T459 367Q436 367 417 354T385 318T365 265T358
201Q358 178 369 166T398 154Z" />
<glyph unicode="A" glyph-name="A" horiz-adv-x="739" d="M8 101H27Q54 101 65 132L220 566Q225 577 219 586T202 595H158V700H491L678 126Q681 116 691 109T710 101H731V0H405V101H491L455 215H228L220 191Q205 147 211 124T253 101H288V0H8V101ZM426 311L349
558H347L261 311H426Z" />
<glyph unicode="B" glyph-name="B" horiz-adv-x="631" d="M10 103H44Q55 103 64 113T73 133V568Q73 577 64 587T44 598H10V700H320Q456 700 526 656T596 520Q596 454 560 419T454 370V366Q535 354 577 315T620 203Q620 152 600 114T541 51T449 13T326 0H10V103ZM317
108Q380 108 403 135T427 213Q427 263 404 287T317 311H261V108H317ZM311 412Q366 412 388 434T411 502Q411 547 389 568T311 590H261V412H311Z" />
<glyph unicode="C" glyph-name="C" horiz-adv-x="634" d="M363 -9Q197 -9 106 82T14 346Q14 433 38 501T107 615T215 685T359 709Q400 709 430 706T478 700H613V463H489L470 572Q456 577 433 581T383 585Q347 585 316 572T263 532T229 460T216 354Q216 114 377
114Q429 114 465 136T528 192H619V65Q573 33 508 12T363 -9Z" />
<glyph unicode="D" glyph-name="D" horiz-adv-x="708" d="M10 101H44Q55 101 64 111T73 131V566Q73 575 64 585T44 595H10V700H315Q502 700 598 616T694 354Q694 177 597 89T310 0H10V101ZM310 106Q405 106 451 164T498 349Q498 475 452 531T310 588H263V106H310Z" />
<glyph unicode="E" glyph-name="E" horiz-adv-x="606" d="M10 101H44Q55 101 64 111T73 131V566Q73 575 64 585T44 595H10V700H585V492H473L456 587H263V409H356L364 470H466V241H364L356 303H263V109H461L477 219H595V0H10V101Z" />
<glyph unicode="F" glyph-name="F" horiz-adv-x="590" d="M10 101H44Q55 101 64 111T73 131V566Q73 575 64 585T44 595H10V700H579V484H467L450 587H263V391H354L362 457H465V214H362L354 283H263V101H344V0H10V101Z" />
<glyph unicode="G" glyph-name="G" horiz-adv-x="676" d="M352 -9Q187 -9 101 81T14 346Q14 433 38 501T107 615T216 685T362 709Q400 709 429 706T476 700H610V470H486L467 572Q453 577 431 581T382 585Q346 585 316 572T263 532T229 460T216 354Q216 234 252
172T364 110Q390 110 406 112T438 119V242H378V344H670V241H650Q639 241 631 231T622 211V0H525Q522 6 518 10Q514 14 509 17T497 21Q470 7 434 -1T352 -9Z" />
<glyph unicode="H" glyph-name="H" horiz-adv-x="743" d="M10 101H44Q55 101 64 111T73 131V566Q73 575 64 585T44 595H10V700H334V595H263V407H480V595H409V700H733V595H699Q688 595 679 585T670 566V131Q670 122 679 112T699 101H733V0H409V101H480V305H263V101H334V0H10V101Z"
/>
<glyph unicode="I" glyph-name="I" horiz-adv-x="348" d="M10 101H51Q61 101 70 111T79 131V566Q79 575 70 585T51 595H10V700H339V595H297Q287 595 279 585T270 566V131Q270 122 278 112T297 101H339V0H10V101Z" />
<glyph unicode="J" glyph-name="J" horiz-adv-x="515" d="M190 -8Q132 -8 90 1T11 28V155H107Q118 137 135 125T181 112Q245 112 245 186V566Q245 575 236 585T218 595H174V700H505V595H464Q453 595 445 585T437 566V193Q437 88 378 40T190 -8Z" />
<glyph unicode="K" glyph-name="K" horiz-adv-x="714" d="M10 101H44Q55 101 64 111T73 131V566Q73 575 64 585T44 595H10V700H325V595H263V367L429 538Q455 564 450 579T418 595H405V700H698V595H678Q665 595 654 587T626 563L468 408L651 128Q658 119 665 110T684
101H704V0H462V90L333 294L263 229V101H326V0H10V101Z" />
<glyph unicode="L" glyph-name="L" horiz-adv-x="585" d="M10 101H44Q55 101 64 111T73 131V566Q73 575 64 585T44 595H10V700H351V595H263V109H439L455 245H575V0H10V101Z" />
<glyph unicode="M" glyph-name="M" horiz-adv-x="905" d="M10 101H44Q55 101 64 111T73 131V566Q73 575 64 585T44 595H10V700H342L451 294H454L564 700H895V595H860Q850 595 841 585T832 566V131Q832 122 841 112T860 101H895V0H581V101H644V558H641L486 0H366L213
558H210V101H276V0H10V101Z" />
<glyph unicode="N" glyph-name="N" horiz-adv-x="718" d="M10 101H44Q55 101 64 111T73 131V566Q73 575 64 585T44 595H10V700H259L507 290H510V595H439V700H708V595H676Q666 595 657 585T648 566V0H485L213 448H210V101H283V0H10V101Z" />
<glyph unicode="O" glyph-name="O" horiz-adv-x="732" d="M366 111Q400 111 428 125T478 169T510 243T522 347Q522 406 511 450T478 523T429 566T366 581Q297 581 254 524T210 347Q210 228 253 170T366 111ZM366 -9Q293 -9 229 14T117 84T42 196T14 350Q14 437
42 503T118 616T230 685T366 709Q438 709 501 686T613 616T689 504T717 350Q717 263 690 197T615 84T503 15T366 -9Z" />
<glyph unicode="P" glyph-name="P" horiz-adv-x="628" d="M10 101H44Q55 101 64 111T73 131V566Q73 575 64 585T44 595H10V700H328Q468 700 542 648T617 478Q617 364 540 311T321 257H263V101H344V0H10V101ZM318 360Q349 360 369 368T402 392T419 429T424 475Q424
500 419 520T402 556T370 579T318 588H260V360H318Z" />
<glyph unicode="Q" glyph-name="Q" horiz-adv-x="732" d="M595 -121Q566 -77 512 -49T361 -9Q281 1 217 25T108 93T39 200T14 350Q14 437 42 503T118 616T230 685T366 709Q438 709 501 686T613 616T689 504T717 350Q717 236 669 166T537 66V63Q581 56 614 47T671
27T712 3T741 -22V-121H595ZM366 111Q400 111 428 125T478 169T510 243T522 347Q522 406 511 450T478 523T429 566T366 581Q297 581 254 524T210 347Q210 228 253 170T366 111Z" />
<glyph unicode="R" glyph-name="R" horiz-adv-x="682" d="M10 101H44Q55 101 64 111T73 131V566Q73 575 64 585T44 595H10V700H332Q474 700 546 651T618 502Q618 435 581 398T469 343V339Q497 333 518 324T556 297T584 253T606 186L621 126Q625 112 632 107T646
101H672V0H448L419 190Q416 217 409 235T391 265T361 281T317 286H263V101H340V0H10V101ZM320 383Q352 383 372 390T405 410T421 443T426 486Q426 509 422 528T405 560T373 581T320 588H260V383H320Z" />
<glyph unicode="S" glyph-name="S" horiz-adv-x="541" d="M258 -9Q223 -9 196 -7T146 0H13V215H140L156 116Q171 111 190 108T240 105Q345 105 345 188Q345 213 333 228T300 253T251 271T190 288Q154 298 123 313T69 352T33 411T20 495Q20 549 38 589T88 656T167
696T269 709Q311 709 339 707T385 700H503V504H378L362 588Q348 593 331 596T287 599Q238 599 212 580T186 522Q186 499 196 484T225 460T266 443T316 429Q370 415 409 398T473 357T511 299T524 217Q524 106 458 49T258 -9Z" />
<glyph unicode="T" glyph-name="T" horiz-adv-x="652" d="M163 101H202Q213 101 221 111T230 131V591H143L130 452H14V700H638V452H523L509 591H421V131Q421 122 430 112T449 101H489V0H163V101Z" />
<glyph unicode="U" glyph-name="U" horiz-adv-x="719" d="M363 -8Q218 -8 145 60T71 262V566Q71 575 63 585T43 595H10V700H337V595H262V251Q262 211 270 185T293 142T331 119T384 112Q414 112 437 119T475 142T499 184T507 251V595H433V700H709V595H677Q667 595
658 585T649 566V262Q649 128 580 60T363 -8Z" />
<glyph unicode="V" glyph-name="V" horiz-adv-x="724" d="M61 571Q57 581 49 588T30 595H10V700H324V595H248L381 181H384L498 524Q510 559 502 577T462 595H433V700H714V595H697Q685 595 675 587T659 565L453 0H261L61 571Z" />
<glyph unicode="W" glyph-name="W" horiz-adv-x="993" d="M56 571Q54 581 45 588T25 595H10V700H319V595H244L328 224H330L447 700H585L701 224H703L776 524Q785 560 778 577T740 595H712V700H983V595H971Q960 595 949 587T933 565L787 0H591L493 400H491L393
0H197L56 571Z" />
<glyph unicode="X" glyph-name="X" horiz-adv-x="685" d="M10 101H34Q44 101 54 106T70 120L226 350L74 567Q63 583 54 589T35 595H10V700H324V599H268L375 443L437 541Q456 571 447 585T417 599H399V700H675V595H649Q639 595 629 589T613 575L463 350L617 129Q628
113 638 107T660 101H675V0H360V98H423L310 259L242 149Q228 127 234 113T264 98H286V0H10V101Z" />
<glyph unicode="Y" glyph-name="Y" horiz-adv-x="679" d="M180 101H219Q230 101 238 111T247 131V277L61 573Q55 583 47 589T30 595H10V700H319V595H248L368 394H370L451 529Q469 560 460 577T418 595H395V700H669V595H655Q644 595 634 587T615 568L438 282V131Q438
122 447 112T466 101H506V0H180V101Z" />
<glyph unicode="Z" glyph-name="Z" horiz-adv-x="570" d="M10 125L356 583V587H162L145 490H33V700H560V571L214 113V109H425L442 221H560V0H10V125Z" />
<glyph unicode="[" glyph-name="bracketleft" horiz-adv-x="273" d="M19 741H263V636H170V52H263V-49H19V741Z" />
<glyph unicode="\" glyph-name="backslash" horiz-adv-x="346" d="M-4 741H112L354 -49H238L-4 741Z" />
<glyph unicode="]" glyph-name="bracketright" horiz-adv-x="273" d="M10 52H103V636H10V741H254V-49H10V52Z" />
<glyph unicode="^" glyph-name="asciicircum" horiz-adv-x="398" d="M10 503L136 700H261L388 503V452H284L200 567H197L114 452H10V503Z" />
<glyph unicode="_" glyph-name="underscore" horiz-adv-x="381" d="M-2 -68H383V-162H-2V-68Z" />
<glyph unicode="`" glyph-name="grave" horiz-adv-x="400" d="M61 647V700H231L257 560H160L61 647Z" />
<glyph unicode="a" glyph-name="a" horiz-adv-x="552" d="M439 -8Q391 -8 365 9T328 57Q299 22 262 8T176 -6Q141 -6 111 3T58 32T22 80T9 148Q9 191 24 222T66 273T131 303T215 313Q247 313 270 311T318 303V346Q318 381 299 397T235 413Q191 413 166 400T122
371H45V497Q84 513 140 524T275 535Q387 535 441 496T496 365V126Q496 118 504 110T520 101H544V16Q525 5 499 -1T439 -8ZM245 96Q267 96 284 103T318 124V220Q289 226 256 226Q220 226 200 211T179 161Q179 126 197 111T245 96Z" />
<glyph unicode="b" glyph-name="b" horiz-adv-x="583" d="M346 -8Q288 -8 252 9T193 54Q182 32 168 16T144 0H34V569Q34 577 26 586T9 595H-24V700H184Q211 700 211 662V459Q241 491 280 513T375 535Q412 535 447 522T510 479T554 398T571 274Q571 199 553 146T503
58T432 8T346 -8ZM286 96Q306 96 325 103T358 128T382 177T391 258Q391 304 383 333T360 378T328 401T288 407Q270 407 250 403T211 391V119Q225 108 243 102T286 96Z" />
<glyph unicode="c" glyph-name="c" horiz-adv-x="509" d="M295 -8Q152 -8 82 62T11 261Q11 325 31 376T88 462T179 516T300 535Q363 535 408 528T482 508V371H382Q369 396 352 409T300 422Q249 422 221 384T193 260Q193 174 219 137T301 100Q342 100 364 115T402
151H483V39Q453 20 407 6T295 -8Z" />
<glyph unicode="d" glyph-name="d" horiz-adv-x="620" d="M229 -9Q186 -9 147 5T77 50T29 133T11 260Q11 334 30 386T81 472T152 520T232 535Q285 535 318 517T378 467V595H318V700H528Q542 700 549 690T556 662V127Q556 119 564 110T581 101H612V0H411Q400 0
393 14T382 54Q358 26 320 9T229 -9ZM293 99Q320 99 340 107T378 130V395Q362 401 343 406T303 411Q280 411 260 404T225 380T201 334T192 260Q192 212 200 181T223 132T255 106T293 99Z" />
<glyph unicode="e" glyph-name="e" horiz-adv-x="545" d="M291 -8Q219 -8 166 10T79 64T28 148T11 260Q11 323 30 374T85 461T171 516T285 535Q409 535 471 472T534 272Q534 256 533 244T532 227H191Q196 161 224 131T308 100Q353 100 376 114T417 151H514V42Q497
32 477 23T429 7T368 -4T291 -8ZM363 319Q359 380 341 405T285 431Q246 431 223 405T193 319H363Z" />
<glyph unicode="f" glyph-name="f" horiz-adv-x="342" d="M8 101H38Q46 101 54 109T62 126V419H5V526H62V559Q62 640 109 676T241 712Q275 712 297 708T337 697V601H306Q274 601 257 593T240 552V526H331V419H240V126Q240 118 248 110T265 101H306V0H8V101Z" />
<glyph unicode="g" glyph-name="g" horiz-adv-x="536" d="M234 -178Q168 -178 122 -170T48 -145T6 -107T-7 -57Q-7 -35 1 -17T23 14T53 37T87 53Q67 64 55 83T42 129Q42 163 60 188T105 230Q32 273 32 362Q32 443 92 489T258 535Q302 535 340 526H525V419H499Q492
419 486 414T477 403Q483 385 483 362Q483 282 423 238T258 194Q204 194 162 206Q161 201 161 195T160 184Q160 167 169 159T199 151H361Q446 151 486 119T526 17Q526 -26 510 -62T459 -123T369 -163T234 -178ZM238 -79Q298 -79 332 -65T367 -25Q367 -8 355 1T309
10H142Q140 2 140 -4T139 -19Q139 -50 160 -64T238 -79ZM259 280Q289 280 307 300T326 362Q326 404 308 423T259 442Q228 442 210 423T191 362Q191 320 209 300T259 280Z" />
<glyph unicode="h" glyph-name="h" horiz-adv-x="624" d="M8 101H39Q47 101 55 109T63 126V570Q63 578 55 586T39 595H5V700H213Q241 700 241 662V458Q276 492 324 513T432 535Q459 535 483 529T527 508T557 468T568 406V126Q568 118 576 110T593 101H616V0H341V101H390V341Q390
376 375 388T323 400Q303 400 282 396T241 387V101H292V0H8V101Z" />
<glyph unicode="i" glyph-name="i" horiz-adv-x="308" d="M8 101H41Q49 101 57 109T65 126V393Q65 401 57 410T41 419H5V526H217Q244 526 244 473V126Q244 118 252 110T269 101H301V0H8V101ZM153 558Q115 558 90 582T64 643Q64 680 89 704T153 728Q191 728 216
704T242 643Q242 606 217 582T153 558Z" />
<glyph unicode="j" glyph-name="j" horiz-adv-x="283" d="M62 -169Q31 -169 9 -166T-33 -157V-67H-2Q36 -67 50 -53T65 -6V393Q65 401 57 410T41 419H5V526H217Q244 526 244 473V-15Q244 -102 197 -135T62 -169ZM153 558Q115 558 90 582T64 643Q64 680 89 704T153
728Q191 728 216 704T242 643Q242 606 217 582T153 558Z" />
<glyph unicode="k" glyph-name="k" horiz-adv-x="598" d="M8 101H38Q46 101 54 109T63 126V569Q63 577 55 586T38 595H5V700H213Q241 700 241 662V284L346 382Q361 396 359 409T339 422H320V526H586V419H562Q553 419 543 415T525 403L424 309L544 128Q561 101
579 101H590V0H368V90L292 206L241 161V101H289V0H8V101Z" />
<glyph unicode="l" glyph-name="l" horiz-adv-x="314" d="M8 101H42Q50 101 58 109T67 126V569Q67 577 59 586T42 595H5V700H217Q245 700 245 662V126Q245 118 253 110T270 101H306V0H8V101Z" />
<glyph unicode="m" glyph-name="m" horiz-adv-x="926" d="M8 101H39Q47 101 55 109T64 126V393Q64 401 56 410T39 419H5V526H206Q220 526 228 512T240 454Q256 469 275 484T316 510T365 528T423 535Q445 535 465 531T503 517T532 491T551 450Q567 466 586 481T629
509T679 528T738 535Q764 535 788 529T831 508T861 468T872 406V126Q872 118 880 110T897 101H919V0H649V101H693V344Q693 379 682 389T635 400Q617 400 597 397T557 388V101H602V0H334V101H379V344Q379 379 367 389T320 400Q302 400 282 397T241 388V101H287V0H8V101Z"
/>
<glyph unicode="n" glyph-name="n" horiz-adv-x="624" d="M8 101H39Q47 101 55 109T64 126V393Q64 401 56 410T39 419H5V526H206Q220 526 228 512T240 456Q275 491 323 513T432 535Q459 535 483 529T527 508T557 468T568 406V126Q568 118 576 110T593 101H616V0H341V101H391V341Q391
376 375 388T324 400Q303 400 282 396T241 387V101H292V0H8V101Z" />
<glyph unicode="o" glyph-name="o" horiz-adv-x="592" d="M297 101Q342 101 371 139T401 259Q401 341 372 380T297 419Q251 419 222 380T192 259Q192 178 221 140T297 101ZM297 -8Q236 -8 184 10T94 62T33 147T11 260Q11 323 33 374T93 461T184 516T297 535Q357
535 409 516T499 461T559 374T581 260Q581 197 560 147T500 63T409 10T297 -8Z" />
<glyph unicode="p" glyph-name="p" horiz-adv-x="606" d="M8 -68H39Q47 -68 55 -60T64 -43V393Q64 401 56 410T39 419H5V526H206Q219 526 227 514T239 464Q268 495 306 515T397 535Q434 535 469 522T533 478T577 398T594 277Q594 204 575 153T524 71T452 25T368
11Q324 11 294 20T241 47V-68H299V-162H8V-68ZM309 111Q329 111 348 117T381 139T405 185T414 261Q414 305 406 333T383 378T350 401T310 407Q294 407 276 403T241 394V128Q255 120 271 116T309 111Z" />
<glyph unicode="q" glyph-name="q" horiz-adv-x="583" d="M313 -68H371V58Q346 38 312 25T227 11Q187 11 149 23T80 64T30 142T11 265Q11 338 30 389T81 472T151 520T230 535Q283 535 318 517T380 467Q390 502 406 514T435 526H549V-43Q549 -51 557 -59T574 -68H607V-162H313V-68ZM293
113Q317 113 336 118T371 134V397Q356 402 339 406T303 410Q280 410 260 403T225 380T201 335T192 263Q192 215 200 186T223 141T255 119T293 113Z" />
<glyph unicode="r" glyph-name="r" horiz-adv-x="426" d="M8 101H39Q47 101 55 109T64 126V393Q64 401 56 410T39 419H5V526H206Q219 526 228 511T240 452Q265 485 297 508T381 532Q389 532 396 531T413 526V394H389Q334 394 299 387T241 370V101H307V0H8V101Z" />
<glyph unicode="s" glyph-name="s" horiz-adv-x="462" d="M214 -7Q139 -7 92 1T11 21V151H108Q119 125 147 112T208 98Q243 98 263 110T284 146Q284 158 280 166T264 181T235 191T187 199Q144 205 112 216T58 246T25 294T14 364Q14 449 74 491T240 534Q307 534
352 527T432 509V384H337Q324 404 302 416T242 428Q169 428 169 385Q169 376 173 369T187 355T216 344T264 335Q312 329 347 319T406 290T440 243T451 171Q451 87 395 40T214 -7Z" />
<glyph unicode="t" glyph-name="t" horiz-adv-x="346" d="M238 -9Q197 -9 165 -2T110 21T75 66T62 138V419H5V526H62V665H240V526H338V419H240V164Q240 125 255 113T310 101H338V5Q320 0 296 -4T238 -9Z" />
<glyph unicode="u" glyph-name="u" horiz-adv-x="624" d="M198 -8Q171 -8 146 -2T101 19T69 58T57 120V394Q57 402 49 410T33 419H5V526H236V182Q236 144 254 132T306 119Q324 119 344 124T384 135V419H322V526H563V127Q563 119 571 110T587 101H616V0H420Q406
0 398 13T386 68Q351 33 306 13T198 -8Z" />
<glyph unicode="v" glyph-name="v" horiz-adv-x="595" d="M52 394Q48 405 40 412T22 419H5V526H283V419H224L313 169H315L386 363Q395 388 392 403T361 419H348V526H587V419H573Q562 419 551 411T535 388L371 0H214L52 394Z" />
<glyph unicode="w" glyph-name="w" horiz-adv-x="831" d="M51 394Q47 404 39 411T20 419H5V526H260V419H217L275 203H277L368 526H499L590 203H592L636 363Q644 392 638 405T606 419H594V526H823V419H810Q799 419 788 411T772 388L656 0H503L413 304H411L319 0H166L51
394Z" />
<glyph unicode="x" glyph-name="x" horiz-adv-x="573" d="M8 101H16Q27 101 38 108T57 123L170 260L57 394Q46 405 38 412T21 419H5V526H288V422H240L317 329L362 385Q373 399 370 410T349 422H337V526H559V419H550Q540 419 530 413T513 397L401 263L516 126Q527
115 536 108T555 101H563V0H284V98H334L253 195L213 144Q199 124 203 111T226 98H234V0H8V101Z" />
<glyph unicode="y" glyph-name="y" horiz-adv-x="597" d="M79 -71Q119 -60 154 -40T219 9L51 394Q46 405 39 412T21 419H5V526H281V419H219L313 192H315L385 363Q395 386 392 402T361 419H348V526H589V419H570Q560 419 550 411T534 388L378 46Q340 -36 301 -84T219
-162H79V-71Z" />
<glyph unicode="z" glyph-name="z" horiz-adv-x="500" d="M10 112L284 417H139L122 340H23V526H488V411L213 107H367L380 183H484V0H10V112Z" />
<glyph unicode="{" glyph-name="braceleft" horiz-adv-x="334" d="M236 -49Q160 -49 123 -14T86 85V244Q86 265 73 282T30 299H10V403H30Q60 403 73 420T86 458V609Q86 672 123 706T237 741H324V636H266Q256 636 247 626T238 607V462Q238 421 217 394T142 353V350Q196
336 217 309T238 241V82Q238 73 247 63T266 52H324V-49H236Z" />
<glyph unicode="|" glyph-name="bar" horiz-adv-x="162" d="M26 741H136V-49H26V741Z" />
<glyph unicode="}" glyph-name="braceright" horiz-adv-x="334" d="M10 52H68Q79 52 88 62T97 82V233Q97 274 118 301T192 342V345Q139 359 118 385T97 453V607Q97 616 88 626T68 636H10V741H98Q174 741 211 706T248 607V451Q248 430 261 413T304 396H324V292H304Q274
292 261 275T248 237V83Q248 20 211 -14T97 -49H10V52Z" />
<glyph unicode="~" glyph-name="asciitilde" horiz-adv-x="363" d="M10 301Q24 328 49 348T112 369Q130 369 148 366T182 358T213 350T237 346Q253 346 261 354T275 373H354V285Q340 258 315 238T251 217Q233 217 215 221T181 229T150 238T126 242Q111 242 103
234T89 214H10V301Z" />
<glyph unicode="&#xa0;" glyph-name="nbspace" horiz-adv-x="155" />
<glyph unicode="&#xa1;" glyph-name="exclamdown" horiz-adv-x="223" d="M19 36L68 420H154L203 36V-68H19V36ZM110 462Q73 462 47 487T20 551Q20 588 46 613T110 638Q149 638 175 613T202 551Q202 513 176 488T110 462Z" />
<glyph unicode="&#xa2;" glyph-name="cent" horiz-adv-x="508" d="M234 -4Q121 10 66 78T10 261Q10 374 69 443T234 530V598H342V534Q389 532 423 525T481 508V369H384Q371 395 353 408T299 422Q248 422 220 384T192 260Q192 174 218 137T300 100Q342 100 365
116T405 154H482V40Q458 26 424 13T342 -5V-102H234V-4Z" />
<glyph unicode="&#xa3;" glyph-name="sterling" horiz-adv-x="520" d="M10 101Q47 109 70 135T94 208Q94 229 91 252T81 299H11V401H52Q44 429 40 455T35 506Q35 557 54 595T106 658T186 696T289 709Q353 709 403 699T498 672V512H399Q392 526 384 538T365 560T340
574T304 580Q269 580 248 560T224 497Q224 482 226 457T233 401H383V299H242Q245 254 244 217T235 150Q270 142 307 139T382 136L395 202H511V0H458Q357 0 287 11T167 44Q152 31 134 21T93 0H10V101Z" />
<glyph unicode="&#xa5;" glyph-name="yen" horiz-adv-x="617" d="M145 101H185Q196 101 204 111T213 131V182H46V261H213V313H46V392H165L53 573Q40 595 23 595H10V700H299V595H241L335 420H338L397 530Q414 562 405 578T366 595H350V700H608V595H593Q582 595
572 587T554 568L449 392H571V313H403V261H571V182H403V131Q403 122 412 112T432 101H472V0H145V101Z" />
<glyph unicode="&#xa6;" glyph-name="brokenbar" horiz-adv-x="162" d="M26 308H137L136 -49H26V308ZM26 741H136L137 390H26V741Z" />
<glyph unicode="&#xa7;" glyph-name="section" horiz-adv-x="544" d="M247 -134Q211 -134 182 -132T130 -125T87 -114T50 -102V34H157Q167 5 188 -12T247 -30Q288 -30 305 -15T323 26Q323 41 318 50T299 68T262 83T202 100Q155 113 120 127T61 162T25 210T13 275Q13
327 38 359T108 411Q84 432 73 460T61 531Q61 613 120 661T284 709Q319 709 346 707T396 702T436 693T472 681V553H366Q356 579 339 592T283 606Q245 606 228 592T211 555Q211 542 215 533T232 515T264 500T317 485Q370 472 410 458T477 424T517 375T531 304Q531
253 505 220T432 168Q460 146 472 118T484 50Q484 9 470 -25T427 -83T354 -120T247 -134ZM345 213Q384 232 384 267Q384 296 359 312T273 344Q267 345 255 348T231 355T208 361T192 366Q169 358 161 345T152 313Q152 301 156 292T171 274T203 257T257 240Q263 238
276 235T302 227T328 219T345 213Z" />
<glyph unicode="&#xa8;" glyph-name="dieresis" horiz-adv-x="400" d="M100 560Q65 560 42 582T18 639Q18 674 41 696T100 718Q135 718 159 696T183 639Q183 604 159 582T100 560ZM299 560Q264 560 241 582T217 639Q217 674 240 696T299 718Q334 718 358 696T382
639Q382 604 358 582T299 560Z" />
<glyph unicode="&#xa9;" glyph-name="copyright" horiz-adv-x="754" d="M385 150Q287 150 235 200T183 347Q183 396 197 434T236 498T297 537T375 551Q399 551 415 549T442 545H530V409H450L438 464Q423 469 401 469Q364 469 341 443T318 352Q318 231 396 231Q422
231 439 242T471 271H532V190Q506 172 468 161T385 150ZM377 31Q442 31 498 52T596 114T661 214T685 350Q685 426 662 485T597 586T499 648T377 669Q312 669 256 648T158 586T93 486T69 350Q69 273 92 214T157 114T255 52T377 31ZM377 -8Q305 -8 241 15T128 84T51
196T22 350Q22 437 50 503T128 615T241 684T377 708Q449 708 513 685T626 616T703 504T732 350Q732 263 704 197T626 85T513 16T377 -8Z" />
<glyph unicode="&#xaa;" glyph-name="ordfeminine" horiz-adv-x="469" d="M370 253Q329 253 307 267T274 306Q250 278 219 266T147 254Q118 254 93 262T49 286T19 327T8 384Q8 454 56 487T181 520Q207 520 226 518T265 512V549Q265 576 250 589T199 602Q162 602
141 592T106 569H38V676Q72 690 120 699T234 708Q331 708 376 675T422 564V370Q422 363 429 356T443 349H461V274Q444 264 422 259T370 253ZM210 343Q241 343 265 364V445Q242 450 218 450Q158 450 158 395Q158 367 172 355T210 343Z" />
<glyph unicode="&#xab;" glyph-name="guillemotleft" horiz-adv-x="497" d="M24 221V298L165 480H256V429L163 263V260L256 93V40H165L24 221ZM241 221V298L381 480H473V429L380 263V260L473 93V40H381L241 221Z" />
<glyph unicode="&#xad;" glyph-name="uni00AD" horiz-adv-x="286" d="M22 361H264V237H22V361Z" />
<glyph unicode="&#xae;" glyph-name="registered" horiz-adv-x="386" d="M109 475H117Q124 475 124 483V580Q124 587 117 587H109V619H196Q272 619 272 569Q272 539 238 529V528Q252 526 258 519T270 494L273 481Q274 475 279 475H285V444H220L214 492Q212 503
208 507T192 512H183V475H200V444H109V475ZM192 542Q205 542 209 548T214 565Q214 575 210 580T192 585H181V542H192ZM193 383Q223 383 248 392T293 420T324 466T335 529Q335 565 324 592T294 637T249 665T193 675Q163 675 138 666T93 638T62 592T51 529Q51 493
62 466T92 421T137 393T193 383ZM193 350Q157 350 124 362T67 397T27 453T12 529Q12 572 27 605T66 661T124 696T193 708Q229 708 261 696T319 661T359 605T374 529Q374 487 359 454T319 397T262 362T193 350Z" />
<glyph unicode="&#xaf;" glyph-name="macron" horiz-adv-x="400" d="M63 685H337V580H63V685Z" />
<glyph unicode="&#xb0;" glyph-name="degree" horiz-adv-x="347" d="M173 482Q206 482 227 504T249 562Q249 599 228 620T173 642Q140 642 120 621T99 562Q99 526 119 504T173 482ZM173 417Q142 417 115 427T67 457T34 502T22 562Q22 595 34 621T66 666T114 695T173
706Q204 706 231 696T279 667T312 622T324 562Q324 529 312 503T280 457T232 428T173 417Z" />
<glyph unicode="&#xb2;" glyph-name="twosuperior" horiz-adv-x="322" d="M10 356Q10 409 37 443T102 503Q117 513 130 522T155 541T172 559T179 580Q179 599 168 608T139 618Q119 618 106 608T85 583H18V685Q44 694 77 700T157 706Q228 706 270 678T313 591Q313
564 305 545T282 511T250 485T214 464Q184 448 158 432T126 399H220L227 427H306V310H10V356Z" />
<glyph unicode="&#xb3;" glyph-name="threesuperior" horiz-adv-x="319" d="M136 303Q91 303 60 309T6 324V416H73Q81 404 94 394T128 383Q148 383 162 393T177 427Q177 468 123 468H87V541H121Q175 541 175 581Q175 620 134 620Q114 620 102 611T81 591H17V685Q43
694 78 700T151 706Q220 706 261 682T302 603Q302 563 280 541T219 510V507Q309 496 309 418Q309 364 264 334T136 303Z" />
<glyph unicode="&#xb4;" glyph-name="acute" horiz-adv-x="400" d="M169 700H338V647L240 560H143L169 700Z" />
<glyph unicode="&#xb6;" glyph-name="paragraph" horiz-adv-x="558" d="M232 300Q184 303 144 315T74 351T28 411T11 500Q11 557 30 595T84 657T164 690T265 700H548V595H514Q504 595 495 585T486 566V-91H390V594H328V-91H232V300Z" />
<glyph unicode="&#xb7;" glyph-name="periodcentered" horiz-adv-x="218" d="M109 207Q90 207 74 213T45 232T25 260T18 294Q18 313 25 329T44 357T73 376T109 383Q147 383 173 358T199 294Q199 257 173 232T109 207Z" />
<glyph unicode="&#xb8;" glyph-name="cedilla" horiz-adv-x="400" d="M199 -175Q171 -175 151 -170T114 -158V-98H155Q159 -103 166 -107T185 -111Q209 -111 209 -92Q209 -72 178 -72H155V0H226V-25Q269 -27 289 -46T309 -98Q309 -134 281 -154T199 -175Z" />
<glyph unicode="&#xb9;" glyph-name="onesuperior" horiz-adv-x="265" d="M10 380H53Q58 380 63 385T69 395V594L32 572H6V654L107 700H204V395Q204 391 209 386T219 380H258V310H10V380Z" />
<glyph unicode="&#xba;" glyph-name="ordmasculine" horiz-adv-x="500" d="M251 348Q286 348 309 379T332 477Q332 543 309 574T251 606Q215 606 192 575T168 477Q168 411 191 380T251 348ZM251 253Q199 253 155 268T79 313T28 383T9 478Q9 531 27 573T78 646T155
692T251 708Q302 708 346 692T422 646T473 574T491 478Q491 425 473 384T423 313T346 269T251 253Z" />
<glyph unicode="&#xbb;" glyph-name="guillemotright" horiz-adv-x="497" d="M24 91L117 257V260L24 427V480H116L256 299V222L116 40H24V91ZM241 91L334 257V260L241 427V480H333L473 299V222L333 40H241V91Z" />
<glyph unicode="&#xbc;" glyph-name="onequarter" horiz-adv-x="732" d="M511 70H538Q543 70 548 75T554 86V105H389V191L557 390H685V177H726V105H685V86Q685 81 690 76T700 70H726V0H511V70ZM10 380H53Q58 380 63 385T69 395V594L32 572H6V654L107 700H204V395Q204
391 209 386T219 380H258V310H10V380ZM558 177V285H556L468 180V177H558ZM571 729H675L182 -34H78L571 729Z" />
<glyph unicode="&#xbd;" glyph-name="onehalf" horiz-adv-x="772" d="M460 46Q460 100 486 133T551 193Q566 203 580 212T604 231T621 250T628 271Q628 308 588 308Q568 308 555 298T534 273H467V376Q493 385 527 391T607 397Q678 397 720 368T763 282Q763 255
754 236T731 202T700 176T664 154Q634 138 608 123T576 89H670L676 118H755V0H460V46ZM10 380H53Q58 380 63 385T69 395V594L32 572H6V654L107 700H204V395Q204 391 209 386T219 380H258V310H10V380ZM566 729H669L176 -34H72L566 729Z" />
<glyph unicode="&#xbe;" glyph-name="threequarters" horiz-adv-x="736" d="M136 303Q91 303 60 309T6 324V416H73Q81 404 94 394T128 383Q148 383 162 393T177 427Q177 468 123 468H87V541H121Q175 541 175 581Q175 620 134 620Q114 620 102 611T81 591H17V685Q43
694 78 700T151 706Q220 706 261 682T302 603Q302 563 280 541T219 510V507Q309 496 309 418Q309 364 264 334T136 303ZM515 70H542Q547 70 552 75T557 86V105H393V191L561 390H689V177H729V105H689V86Q689 81 694 76T704 70H729V0H515V70ZM562 177V285H560L472
180V177H562ZM581 729H685L191 -34H88L581 729Z" />
<glyph unicode="&#xbf;" glyph-name="questiondown" horiz-adv-x="450" d="M245 -78Q132 -78 72 -30T11 110Q11 143 19 168T43 212T78 248T121 280Q146 298 166 313T200 344T220 378T225 420H330Q335 390 335 366T329 319T308 276T272 230Q263 220 250 208T226
180T207 147T199 110Q199 80 214 63T258 45Q290 45 307 61T337 101H439V-43Q394 -60 350 -69T245 -78ZM269 462Q232 462 206 487T179 551Q179 588 205 613T269 638Q288 638 304 632T333 613T353 585T360 551Q360 532 353 516T334 488T305 469T269 462Z" />
<glyph unicode="&#xc0;" glyph-name="Agrave" horiz-adv-x="739" d="M8 101H27Q54 101 65 132L220 566Q225 577 219 586T202 595H158V700H491L678 126Q681 116 691 109T710 101H731V0H405V101H491L455 215H228L220 191Q205 147 211 124T253 101H288V0H8V101ZM426
311L349 558H347L261 311H426ZM209 820V873H379L405 733H308L209 820Z" />
<glyph unicode="&#xc1;" glyph-name="Aacute" horiz-adv-x="739" d="M8 101H27Q54 101 65 132L220 566Q225 577 219 586T202 595H158V700H491L678 126Q681 116 691 109T710 101H731V0H405V101H491L455 215H228L220 191Q205 147 211 124T253 101H288V0H8V101ZM426
311L349 558H347L261 311H426ZM317 873H486V820L388 733H291L317 873Z" />
<glyph unicode="&#xc2;" glyph-name="Acircumflex" horiz-adv-x="739" d="M8 101H27Q54 101 65 132L220 566Q225 577 219 586T202 595H158V700H491L678 126Q681 116 691 109T710 101H731V0H405V101H491L455 215H228L220 191Q205 147 211 124T253 101H288V0H8V101ZM426
311L349 558H347L261 311H426ZM209 771L280 873H417L486 771V733H415L344 783L273 733H209V771Z" />
<glyph unicode="&#xc3;" glyph-name="Atilde" horiz-adv-x="739" d="M8 101H27Q54 101 65 132L220 566Q225 577 219 586T202 595H158V700H491L678 126Q681 116 691 109T710 101H731V0H405V101H491L455 215H228L220 191Q205 147 211 124T253 101H288V0H8V101ZM426
311L349 558H347L261 311H426ZM180 812Q193 838 217 855T281 872Q298 872 315 868T349 860T380 852T404 848Q420 848 428 855T442 876H516V796Q503 771 479 754T415 736Q398 736 381 740T347 750T316 759T292 764Q276 764 268 756T255 734H180V812Z" />
<glyph unicode="&#xc4;" glyph-name="Adieresis" horiz-adv-x="739" d="M8 101H27Q54 101 65 132L220 566Q225 577 219 586T202 595H158V700H491L678 126Q681 116 691 109T710 101H731V0H405V101H491L455 215H228L220 191Q205 147 211 124T253 101H288V0H8V101ZM426
311L349 558H347L261 311H426ZM248 733Q213 733 190 755T166 812Q166 847 189 869T248 891Q283 891 307 869T331 812Q331 777 307 755T248 733ZM447 733Q412 733 389 755T365 812Q365 847 388 869T447 891Q482 891 506 869T530 812Q530 777 506 755T447 733Z" />
<glyph unicode="&#xc5;" glyph-name="Aring" horiz-adv-x="739" d="M8 101H27Q54 101 65 132L220 566Q225 577 219 586T202 595H158V700H491L678 126Q681 116 691 109T710 101H731V0H405V101H491L455 215H228L220 191Q205 147 211 124T253 101H288V0H8V101ZM426
311L349 558H347L261 311H426ZM355 786Q377 786 390 800T404 837Q404 861 391 874T355 888Q333 888 320 875T307 837Q307 814 320 800T355 786ZM355 735Q312 735 280 762T248 837Q248 860 256 879T280 911T314 932T355 939Q376 939 395 932T430 912T453 879T462
837Q462 789 430 762T355 735Z" />
<glyph unicode="&#xc6;" glyph-name="AE" horiz-adv-x="988" d="M299 311H458V587H449L299 311ZM396 0V101H458V215H248L234 191Q211 149 220 125T266 101H298V0H8V101H29Q42 101 51 109T68 132L303 566Q308 577 303 586T286 595H242V700H967V492H855L837 587H648V409H738L745
470H848V241H745L738 303H648V109H843L859 221H977V0H396Z" />
<glyph unicode="&#xc7;" glyph-name="Ccedilla" horiz-adv-x="635" d="M339 -175Q311 -175 291 -170T254 -158V-98H295Q299 -103 306 -107T325 -111Q349 -111 349 -92Q349 -72 318 -72H295V-5Q160 13 87 102T14 346Q14 433 38 501T107 615T215 685T359 709Q400
709 430 706T478 700H613V463H489L470 572Q456 577 433 581T383 585Q347 585 316 572T263 532T229 460T216 354Q216 114 377 114Q429 114 465 136T528 192H619V65Q573 33 509 13T366 -9V-25Q409 -27 429 -46T449 -98Q449 -134 421 -154T339 -175Z" />
<glyph unicode="&#xc8;" glyph-name="Egrave" horiz-adv-x="606" d="M10 101H44Q55 101 64 111T73 131V566Q73 575 64 585T44 595H10V700H585V492H473L456 587H263V409H356L364 470H466V241H364L356 303H263V109H461L477 219H595V0H10V101ZM170 820V873H340L366
733H269L170 820Z" />
<glyph unicode="&#xc9;" glyph-name="Eacute" horiz-adv-x="606" d="M278 873H447V820L349 733H252L278 873ZM10 101H44Q55 101 64 111T73 131V566Q73 575 64 585T44 595H10V700H585V492H473L456 587H263V409H356L364 470H466V241H364L356 303H263V109H461L477
219H595V0H10V101Z" />
<glyph unicode="&#xca;" glyph-name="Ecircumflex" horiz-adv-x="606" d="M170 771L241 873H378L447 771V733H376L305 783L234 733H170V771ZM10 101H44Q55 101 64 111T73 131V566Q73 575 64 585T44 595H10V700H585V492H473L456 587H263V409H356L364 470H466V241H364L356
303H263V109H461L477 219H595V0H10V101Z" />
<glyph unicode="&#xcb;" glyph-name="Edieresis" horiz-adv-x="606" d="M209 733Q174 733 151 755T127 812Q127 847 150 869T209 891Q244 891 268 869T292 812Q292 777 268 755T209 733ZM408 733Q373 733 350 755T326 812Q326 847 349 869T408 891Q443 891 467
869T491 812Q491 777 467 755T408 733ZM10 101H44Q55 101 64 111T73 131V566Q73 575 64 585T44 595H10V700H585V492H473L456 587H263V409H356L364 470H466V241H364L356 303H263V109H461L477 219H595V0H10V101Z" />
<glyph unicode="&#xcc;" glyph-name="Igrave" horiz-adv-x="349" d="M10 101H51Q61 101 70 111T79 131V566Q79 575 70 585T51 595H10V700H339V595H297Q287 595 279 585T270 566V131Q270 122 278 112T297 101H339V0H10V101ZM37 820V873H207L233 733H136L37 820Z" />
<glyph unicode="&#xcd;" glyph-name="Iacute" horiz-adv-x="349" d="M10 101H51Q61 101 70 111T79 131V566Q79 575 70 585T51 595H10V700H339V595H297Q287 595 279 585T270 566V131Q270 122 278 112T297 101H339V0H10V101ZM145 873H314V820L216 733H119L145 873Z" />
<glyph unicode="&#xce;" glyph-name="Icircumflex" horiz-adv-x="349" d="M10 101H51Q61 101 70 111T79 131V566Q79 575 70 585T51 595H10V700H339V595H297Q287 595 279 585T270 566V131Q270 122 278 112T297 101H339V0H10V101ZM37 771L108 873H245L314 771V733H243L172
783L101 733H37V771Z" />
<glyph unicode="&#xcf;" glyph-name="Idieresis" horiz-adv-x="349" d="M10 101H51Q61 101 70 111T79 131V566Q79 575 70 585T51 595H10V700H339V595H297Q287 595 279 585T270 566V131Q270 122 278 112T297 101H339V0H10V101ZM76 733Q41 733 18 755T-6 812Q-6
847 17 869T76 891Q111 891 135 869T159 812Q159 777 135 755T76 733ZM275 733Q240 733 217 755T193 812Q193 847 216 869T275 891Q310 891 334 869T358 812Q358 777 334 755T275 733Z" />
<glyph unicode="&#xd0;" glyph-name="Eth" horiz-adv-x="708" d="M10 101H44Q55 101 64 111T73 131V296H10V398H73V566Q73 575 64 585T44 595H10V700H315Q502 700 598 616T694 354Q694 177 597 89T310 0H10V101ZM310 106Q405 106 451 164T498 349Q498 475 452
531T310 588H263V398H385V296H263V106H310Z" />
<glyph unicode="&#xd1;" glyph-name="Ntilde" horiz-adv-x="718" d="M10 101H44Q55 101 64 111T73 131V566Q73 575 64 585T44 595H10V700H259L507 290H510V595H439V700H708V595H676Q666 595 657 585T648 566V0H485L213 448H210V101H283V0H10V101ZM197 812Q210
838 234 855T298 872Q315 872 332 868T366 860T397 852T421 848Q437 848 445 855T459 876H533V796Q520 771 496 754T432 736Q415 736 398 740T364 750T333 759T309 764Q293 764 285 756T272 734H197V812Z" />
<glyph unicode="&#xd2;" glyph-name="Ograve" horiz-adv-x="732" d="M366 111Q400 111 428 125T478 169T510 243T522 347Q522 406 511 450T478 523T429 566T366 581Q297 581 254 524T210 347Q210 228 253 170T366 111ZM366 -9Q293 -9 229 14T117 84T42 196T14
350Q14 437 42 503T118 616T230 685T366 709Q438 709 501 686T613 616T689 504T717 350Q717 263 690 197T615 84T503 15T366 -9ZM226 823V876H396L422 736H325L226 823Z" />
<glyph unicode="&#xd3;" glyph-name="Oacute" horiz-adv-x="732" d="M334 876H503V823L405 736H308L334 876ZM366 111Q400 111 428 125T478 169T510 243T522 347Q522 406 511 450T478 523T429 566T366 581Q297 581 254 524T210 347Q210 228 253 170T366 111ZM366
-9Q293 -9 229 14T117 84T42 196T14 350Q14 437 42 503T118 616T230 685T366 709Q438 709 501 686T613 616T689 504T717 350Q717 263 690 197T615 84T503 15T366 -9Z" />
<glyph unicode="&#xd4;" glyph-name="Ocircumflex" horiz-adv-x="732" d="M226 774L297 876H434L503 774V736H432L361 786L290 736H226V774ZM366 111Q400 111 428 125T478 169T510 243T522 347Q522 406 511 450T478 523T429 566T366 581Q297 581 254 524T210 347Q210
228 253 170T366 111ZM366 -9Q293 -9 229 14T117 84T42 196T14 350Q14 437 42 503T118 616T230 685T366 709Q438 709 501 686T613 616T689 504T717 350Q717 263 690 197T615 84T503 15T366 -9Z" />
<glyph unicode="&#xd5;" glyph-name="Otilde" horiz-adv-x="732" d="M366 111Q400 111 428 125T478 169T510 243T522 347Q522 406 511 450T478 523T429 566T366 581Q297 581 254 524T210 347Q210 228 253 170T366 111ZM366 -9Q293 -9 229 14T117 84T42 196T14
350Q14 437 42 503T118 616T230 685T366 709Q438 709 501 686T613 616T689 504T717 350Q717 263 690 197T615 84T503 15T366 -9ZM197 815Q210 841 234 858T298 875Q315 875 332 871T366 863T397 855T421 851Q437 851 445 858T459 879H533V799Q520 774 496 757T432
739Q415 739 398 743T364 753T333 762T309 767Q293 767 285 759T272 737H197V815Z" />
<glyph unicode="&#xd6;" glyph-name="Odieresis" horiz-adv-x="732" d="M265 736Q230 736 207 758T183 815Q183 850 206 872T265 894Q300 894 324 872T348 815Q348 780 324 758T265 736ZM464 736Q429 736 406 758T382 815Q382 850 405 872T464 894Q499 894 523
872T547 815Q547 780 523 758T464 736ZM366 111Q400 111 428 125T478 169T510 243T522 347Q522 406 511 450T478 523T429 566T366 581Q297 581 254 524T210 347Q210 228 253 170T366 111ZM366 -9Q293 -9 229 14T117 84T42 196T14 350Q14 437 42 503T118 616T230
685T366 709Q438 709 501 686T613 616T689 504T717 350Q717 263 690 197T615 84T503 15T366 -9Z" />
<glyph unicode="&#xd7;" glyph-name="multiply" horiz-adv-x="520" d="M27 199L170 341L27 482L118 572L260 430L403 572L493 482L351 340L493 200L404 109L261 251L118 109L27 199Z" />
<glyph unicode="&#xd8;" glyph-name="Oslash" horiz-adv-x="732" d="M115 85Q68 131 41 197T14 350Q14 437 42 503T118 616T230 685T366 709Q474 709 561 657L610 721H705L619 611Q665 565 691 500T717 350Q717 263 690 197T615 84T503 15T366 -9Q258 -9 175 40L121
-29H26L115 85ZM366 111Q400 111 428 125T478 169T511 242T523 347Q523 417 506 466L264 153Q303 111 366 111ZM468 538Q428 581 366 581Q297 581 253 524T208 347Q208 274 226 226L468 538Z" />
<glyph unicode="&#xd9;" glyph-name="Ugrave" horiz-adv-x="719" d="M363 -8Q218 -8 145 60T71 262V566Q71 575 63 585T43 595H10V700H337V595H262V251Q262 211 270 185T293 142T331 119T384 112Q414 112 437 119T475 142T499 184T507 251V595H433V700H709V595H677Q667
595 658 585T649 566V262Q649 128 580 60T363 -8ZM246 820V873H416L442 733H345L246 820Z" />
<glyph unicode="&#xda;" glyph-name="Uacute" horiz-adv-x="719" d="M354 873H523V820L425 733H328L354 873ZM363 -8Q218 -8 145 60T71 262V566Q71 575 63 585T43 595H10V700H337V595H262V251Q262 211 270 185T293 142T331 119T384 112Q414 112 437 119T475 142T499
184T507 251V595H433V700H709V595H677Q667 595 658 585T649 566V262Q649 128 580 60T363 -8Z" />
<glyph unicode="&#xdb;" glyph-name="Ucircumflex" horiz-adv-x="719" d="M246 771L317 873H454L523 771V733H452L381 783L310 733H246V771ZM363 -8Q218 -8 145 60T71 262V566Q71 575 63 585T43 595H10V700H337V595H262V251Q262 211 270 185T293 142T331 119T384
112Q414 112 437 119T475 142T499 184T507 251V595H433V700H709V595H677Q667 595 658 585T649 566V262Q649 128 580 60T363 -8Z" />
<glyph unicode="&#xdc;" glyph-name="Udieresis" horiz-adv-x="719" d="M285 733Q250 733 227 755T203 812Q203 847 226 869T285 891Q320 891 344 869T368 812Q368 777 344 755T285 733ZM484 733Q449 733 426 755T402 812Q402 847 425 869T484 891Q519 891 543
869T567 812Q567 777 543 755T484 733ZM363 -8Q218 -8 145 60T71 262V566Q71 575 63 585T43 595H10V700H337V595H262V251Q262 211 270 185T293 142T331 119T384 112Q414 112 437 119T475 142T499 184T507 251V595H433V700H709V595H677Q667 595 658 585T649 566V262Q649
128 580 60T363 -8Z" />
<glyph unicode="&#xdd;" glyph-name="Yacute" horiz-adv-x="679" d="M180 101H219Q230 101 238 111T247 131V277L61 573Q55 583 47 589T30 595H10V700H319V595H248L368 394H370L451 529Q469 560 460 577T418 595H395V700H669V595H655Q644 595 634 587T615 568L438
282V131Q438 122 447 112T466 101H506V0H180V101ZM325 873H494V820L396 733H299L325 873Z" />
<glyph unicode="&#xde;" glyph-name="Thorn" horiz-adv-x="629" d="M10 101H44Q55 101 64 111T73 131V566Q73 575 64 585T44 595H10V700H334V595H263V539H351Q411 539 460 530T545 500T599 443T618 353Q618 299 598 263T542 204T456 173T345 163H263V101H340V0H10V101ZM330
259Q381 259 402 282T424 349Q424 391 403 413T330 436H263V259H330Z" />
<glyph unicode="&#xdf;" glyph-name="germandbls" horiz-adv-x="657" d="M445 -7Q395 -7 356 -1T286 17V139H375Q382 121 396 108T437 94Q488 94 488 137Q488 159 466 171T397 201Q346 221 319 251T291 331Q291 354 296 372T312 405T335 435T362 464Q385 488 396
505T408 545Q408 568 391 582T339 597Q312 597 293 589T263 568T246 537T240 502V0H8V101H38Q46 101 54 109T62 126V419H5V526H62Q64 563 82 596T136 654T221 695T338 710Q392 710 437 702T515 675T566 629T584 560Q584 520 561 492T505 439Q470 414 457 402T444
375Q444 361 456 352T507 327Q540 314 566 300T610 267T637 223T647 161Q647 83 596 38T445 -7Z" />
<glyph unicode="&#xe0;" glyph-name="agrave" horiz-adv-x="552" d="M439 -8Q391 -8 365 9T328 57Q299 22 262 8T176 -6Q141 -6 111 3T58 32T22 80T9 148Q9 191 24 222T66 273T131 303T215 313Q247 313 270 311T318 303V346Q318 381 299 397T235 413Q191 413 166
400T122 371H45V497Q84 513 140 524T275 535Q387 535 441 496T496 365V126Q496 118 504 110T520 101H544V16Q525 5 499 -1T439 -8ZM245 96Q267 96 284 103T318 124V220Q289 226 256 226Q220 226 200 211T179 161Q179 126 197 111T245 96ZM124 647V700H294L320 560H223L124
647Z" />
<glyph unicode="&#xe1;" glyph-name="aacute" horiz-adv-x="552" d="M439 -8Q391 -8 365 9T328 57Q299 22 262 8T176 -6Q141 -6 111 3T58 32T22 80T9 148Q9 191 24 222T66 273T131 303T215 313Q247 313 270 311T318 303V346Q318 381 299 397T235 413Q191 413 166
400T122 371H45V497Q84 513 140 524T275 535Q387 535 441 496T496 365V126Q496 118 504 110T520 101H544V16Q525 5 499 -1T439 -8ZM245 96Q267 96 284 103T318 124V220Q289 226 256 226Q220 226 200 211T179 161Q179 126 197 111T245 96ZM232 700H401V647L303 560H206L232
700Z" />
<glyph unicode="&#xe2;" glyph-name="acircumflex" horiz-adv-x="552" d="M439 -8Q391 -8 365 9T328 57Q299 22 262 8T176 -6Q141 -6 111 3T58 32T22 80T9 148Q9 191 24 222T66 273T131 303T215 313Q247 313 270 311T318 303V346Q318 381 299 397T235 413Q191
413 166 400T122 371H45V497Q84 513 140 524T275 535Q387 535 441 496T496 365V126Q496 118 504 110T520 101H544V16Q525 5 499 -1T439 -8ZM245 96Q267 96 284 103T318 124V220Q289 226 256 226Q220 226 200 211T179 161Q179 126 197 111T245 96ZM124 598L195 700H332L401
598V560H330L259 610L188 560H124V598Z" />
<glyph unicode="&#xe3;" glyph-name="atilde" horiz-adv-x="552" d="M439 -8Q391 -8 365 9T328 57Q299 22 262 8T176 -6Q141 -6 111 3T58 32T22 80T9 148Q9 191 24 222T66 273T131 303T215 313Q247 313 270 311T318 303V346Q318 381 299 397T235 413Q191 413 166
400T122 371H45V497Q84 513 140 524T275 535Q387 535 441 496T496 365V126Q496 118 504 110T520 101H544V16Q525 5 499 -1T439 -8ZM245 96Q267 96 284 103T318 124V220Q289 226 256 226Q220 226 200 211T179 161Q179 126 197 111T245 96ZM95 639Q108 665 132 682T196
699Q213 699 230 695T264 687T295 679T319 675Q335 675 343 682T357 703H431V623Q418 598 394 581T330 563Q313 563 296 567T262 577T231 586T207 591Q191 591 183 583T170 561H95V639Z" />
<glyph unicode="&#xe4;" glyph-name="adieresis" horiz-adv-x="552" d="M439 -8Q391 -8 365 9T328 57Q299 22 262 8T176 -6Q141 -6 111 3T58 32T22 80T9 148Q9 191 24 222T66 273T131 303T215 313Q247 313 270 311T318 303V346Q318 381 299 397T235 413Q191 413
166 400T122 371H45V497Q84 513 140 524T275 535Q387 535 441 496T496 365V126Q496 118 504 110T520 101H544V16Q525 5 499 -1T439 -8ZM245 96Q267 96 284 103T318 124V220Q289 226 256 226Q220 226 200 211T179 161Q179 126 197 111T245 96ZM163 560Q128 560 105
582T81 639Q81 674 104 696T163 718Q198 718 222 696T246 639Q246 604 222 582T163 560ZM362 560Q327 560 304 582T280 639Q280 674 303 696T362 718Q397 718 421 696T445 639Q445 604 421 582T362 560Z" />
<glyph unicode="&#xe5;" glyph-name="aring" horiz-adv-x="552" d="M439 -8Q391 -8 365 9T328 57Q299 22 262 8T176 -6Q141 -6 111 3T58 32T22 80T9 148Q9 191 24 222T66 273T131 303T215 313Q247 313 270 311T318 303V346Q318 381 299 397T235 413Q191 413 166
400T122 371H45V497Q84 513 140 524T275 535Q387 535 441 496T496 365V126Q496 118 504 110T520 101H544V16Q525 5 499 -1T439 -8ZM245 96Q267 96 284 103T318 124V220Q289 226 256 226Q220 226 200 211T179 161Q179 126 197 111T245 96ZM263 613Q285 613 298 627T312
664Q312 688 299 701T263 715Q241 715 228 702T215 664Q215 641 228 627T263 613ZM263 562Q220 562 188 589T156 664Q156 687 164 706T188 738T222 759T263 766Q284 766 303 759T338 739T361 706T370 664Q370 616 338 589T263 562Z" />
<glyph unicode="&#xe6;" glyph-name="ae" horiz-adv-x="844" d="M597 -8Q517 -8 462 14T372 78Q348 51 325 35T278 9T229 -3T176 -6Q141 -6 111 3T58 32T22 80T9 148Q9 232 70 272T233 313Q240 313 252 313T277 313T301 312T318 310V347Q318 382 299 397T235 413Q191
413 166 400T122 373H45V497Q84 513 138 524T268 535Q325 535 366 524T432 486Q491 535 587 535Q709 535 771 472T833 272Q833 256 832 243T831 224H497Q502 159 529 130T610 100Q654 100 676 114T716 151H813V42Q779 22 729 7T597 -8ZM245 96Q269 96 291 105T336
140Q322 176 318 222Q316 222 307 222T289 223T270 224T259 224Q221 224 200 209T179 160Q179 125 197 111T245 96ZM662 316Q659 379 642 405T587 431Q549 431 527 405T497 316H662Z" />
<glyph unicode="&#xe7;" glyph-name="ccedilla" horiz-adv-x="508" d="M273 -175Q245 -175 225 -170T188 -158V-98H229Q233 -103 240 -107T259 -111Q283 -111 283 -92Q283 -72 252 -72H229V-3Q118 12 64 80T10 261Q10 325 30 376T87 462T178 516T299 535Q362 535
407 528T481 508V371H381Q368 396 351 409T299 422Q248 422 220 384T192 260Q192 174 218 137T300 100Q341 100 363 115T401 151H482V39Q453 20 408 7T300 -8V-25Q343 -27 363 -46T383 -98Q383 -134 355 -154T273 -175Z" />
<glyph unicode="&#xe8;" glyph-name="egrave" horiz-adv-x="544" d="M291 -8Q219 -8 166 10T79 64T28 148T11 260Q11 323 30 374T85 461T171 516T285 535Q409 535 471 472T534 272Q534 256 533 244T532 227H191Q196 161 224 131T308 100Q353 100 376 114T417 151H514V42Q497
32 477 23T429 7T368 -4T291 -8ZM363 319Q359 380 341 405T285 431Q246 431 223 405T193 319H363ZM143 647V700H313L339 560H242L143 647Z" />
<glyph unicode="&#xe9;" glyph-name="eacute" horiz-adv-x="544" d="M251 700H420V647L322 560H225L251 700ZM291 -8Q219 -8 166 10T79 64T28 148T11 260Q11 323 30 374T85 461T171 516T285 535Q409 535 471 472T534 272Q534 256 533 244T532 227H191Q196 161
224 131T308 100Q353 100 376 114T417 151H514V42Q497 32 477 23T429 7T368 -4T291 -8ZM363 319Q359 380 341 405T285 431Q246 431 223 405T193 319H363Z" />
<glyph unicode="&#xea;" glyph-name="ecircumflex" horiz-adv-x="544" d="M143 598L214 700H351L420 598V560H349L278 610L207 560H143V598ZM291 -8Q219 -8 166 10T79 64T28 148T11 260Q11 323 30 374T85 461T171 516T285 535Q409 535 471 472T534 272Q534 256
533 244T532 227H191Q196 161 224 131T308 100Q353 100 376 114T417 151H514V42Q497 32 477 23T429 7T368 -4T291 -8ZM363 319Q359 380 341 405T285 431Q246 431 223 405T193 319H363Z" />
<glyph unicode="&#xeb;" glyph-name="edieresis" horiz-adv-x="544" d="M182 560Q147 560 124 582T100 639Q100 674 123 696T182 718Q217 718 241 696T265 639Q265 604 241 582T182 560ZM381 560Q346 560 323 582T299 639Q299 674 322 696T381 718Q416 718 440
696T464 639Q464 604 440 582T381 560ZM291 -8Q219 -8 166 10T79 64T28 148T11 260Q11 323 30 374T85 461T171 516T285 535Q409 535 471 472T534 272Q534 256 533 244T532 227H191Q196 161 224 131T308 100Q353 100 376 114T417 151H514V42Q497 32 477 23T429 7T368
-4T291 -8ZM363 319Q359 380 341 405T285 431Q246 431 223 405T193 319H363Z" />
<glyph unicode="&#xec;" glyph-name="igrave" horiz-adv-x="309" d="M8 101H41Q49 101 57 109T65 126V393Q65 401 57 410T41 419H5V526H217Q244 526 244 473V126Q244 118 252 110T269 101H301V0H8V101ZM264 647V700H434L460 560H363L264 647Z" />
<glyph unicode="&#xed;" glyph-name="iacute" horiz-adv-x="309" d="M372 700H541V647L443 560H346L372 700ZM8 101H41Q49 101 57 109T65 126V393Q65 401 57 410T41 419H5V526H217Q244 526 244 473V126Q244 118 252 110T269 101H301V0H8V101Z" />
<glyph unicode="&#xee;" glyph-name="icircumflex" horiz-adv-x="309" d="M264 598L335 700H472L541 598V560H470L399 610L328 560H264V598ZM8 101H41Q49 101 57 109T65 126V393Q65 401 57 410T41 419H5V526H217Q244 526 244 473V126Q244 118 252 110T269 101H301V0H8V101Z"
/>
<glyph unicode="&#xef;" glyph-name="idieresis" horiz-adv-x="309" d="M303 560Q268 560 245 582T221 639Q221 674 244 696T303 718Q338 718 362 696T386 639Q386 604 362 582T303 560ZM502 560Q467 560 444 582T420 639Q420 674 443 696T502 718Q537 718 561
696T585 639Q585 604 561 582T502 560ZM8 101H41Q49 101 57 109T65 126V393Q65 401 57 410T41 419H5V526H217Q244 526 244 473V126Q244 118 252 110T269 101H301V0H8V101Z" />
<glyph unicode="&#xf0;" glyph-name="eth" horiz-adv-x="592" d="M294 -8Q234 -8 182 9T92 60T32 142T10 251Q10 312 30 358T83 436T159 483T248 499Q299 499 331 480T384 432Q371 470 348 499T295 546L262 518H176V545L219 582Q205 587 190 590T158 597V700H230Q256
695 280 689T327 674L356 699H442V672L402 638Q487 584 533 499T580 292Q580 211 558 154T498 61T408 9T294 -8ZM296 99Q341 99 370 134T400 248Q400 326 371 363T296 400Q250 400 221 363T191 248Q191 170 220 135T296 99Z" />
<glyph unicode="&#xf1;" glyph-name="ntilde" horiz-adv-x="624" d="M8 101H39Q47 101 55 109T64 126V393Q64 401 56 410T39 419H5V526H206Q220 526 228 512T240 456Q275 491 323 513T432 535Q459 535 483 529T527 508T557 468T568 406V126Q568 118 576 110T593
101H616V0H341V101H391V341Q391 376 375 388T324 400Q303 400 282 396T241 387V101H292V0H8V101ZM145 639Q158 665 182 682T246 699Q263 699 280 695T314 687T345 679T369 675Q385 675 393 682T407 703H481V623Q468 598 444 581T380 563Q363 563 346 567T312 577T281
586T257 591Q241 591 233 583T220 561H145V639Z" />
<glyph unicode="&#xf2;" glyph-name="ograve" horiz-adv-x="592" d="M297 101Q342 101 371 139T401 259Q401 341 372 380T297 419Q251 419 222 380T192 259Q192 178 221 140T297 101ZM297 -8Q236 -8 184 10T94 62T33 147T11 260Q11 323 33 374T93 461T184 516T297
535Q357 535 409 516T499 461T559 374T581 260Q581 197 560 147T500 63T409 10T297 -8ZM156 647V700H326L352 560H255L156 647Z" />
<glyph unicode="&#xf3;" glyph-name="oacute" horiz-adv-x="592" d="M264 700H433V647L335 560H238L264 700ZM297 101Q342 101 371 139T401 259Q401 341 372 380T297 419Q251 419 222 380T192 259Q192 178 221 140T297 101ZM297 -8Q236 -8 184 10T94 62T33 147T11
260Q11 323 33 374T93 461T184 516T297 535Q357 535 409 516T499 461T559 374T581 260Q581 197 560 147T500 63T409 10T297 -8Z" />
<glyph unicode="&#xf4;" glyph-name="ocircumflex" horiz-adv-x="592" d="M156 598L227 700H364L433 598V560H362L291 610L220 560H156V598ZM297 101Q342 101 371 139T401 259Q401 341 372 380T297 419Q251 419 222 380T192 259Q192 178 221 140T297 101ZM297
-8Q236 -8 184 10T94 62T33 147T11 260Q11 323 33 374T93 461T184 516T297 535Q357 535 409 516T499 461T559 374T581 260Q581 197 560 147T500 63T409 10T297 -8Z" />
<glyph unicode="&#xf5;" glyph-name="otilde" horiz-adv-x="592" d="M297 101Q342 101 371 139T401 259Q401 341 372 380T297 419Q251 419 222 380T192 259Q192 178 221 140T297 101ZM297 -8Q236 -8 184 10T94 62T33 147T11 260Q11 323 33 374T93 461T184 516T297
535Q357 535 409 516T499 461T559 374T581 260Q581 197 560 147T500 63T409 10T297 -8ZM127 639Q140 665 164 682T228 699Q245 699 262 695T296 687T327 679T351 675Q367 675 375 682T389 703H463V623Q450 598 426 581T362 563Q345 563 328 567T294 577T263 586T239
591Q223 591 215 583T202 561H127V639Z" />
<glyph unicode="&#xf6;" glyph-name="odieresis" horiz-adv-x="592" d="M195 560Q160 560 137 582T113 639Q113 674 136 696T195 718Q230 718 254 696T278 639Q278 604 254 582T195 560ZM394 560Q359 560 336 582T312 639Q312 674 335 696T394 718Q429 718 453
696T477 639Q477 604 453 582T394 560ZM297 101Q342 101 371 139T401 259Q401 341 372 380T297 419Q251 419 222 380T192 259Q192 178 221 140T297 101ZM297 -8Q236 -8 184 10T94 62T33 147T11 260Q11 323 33 374T93 461T184 516T297 535Q357 535 409 516T499 461T559
374T581 260Q581 197 560 147T500 63T409 10T297 -8Z" />
<glyph unicode="&#xf7;" glyph-name="divide" horiz-adv-x="512" d="M257 71Q238 71 222 78T193 96T173 124T166 158Q166 177 173 193T192 221T221 240T257 247Q294 247 320 222T347 158Q347 140 340 124T321 97T292 78T257 71ZM13 411H499V280H13V411ZM257 444Q238
444 222 450T193 469T173 497T166 531Q166 549 173 565T192 594T221 613T257 620Q294 620 320 594T347 531Q347 494 321 469T257 444Z" />
<glyph unicode="&#xf8;" glyph-name="oslash" horiz-adv-x="592" d="M95 61Q56 96 34 146T11 260Q11 323 33 374T93 461T184 516T297 535Q339 535 377 526T447 499L487 548H569L499 461Q538 426 559 375T581 260Q581 197 560 147T500 63T409 10T297 -8Q212 -8
148 26L104 -29H23L95 61ZM297 99Q343 99 373 138T404 259Q404 281 402 299T395 332L228 124Q242 110 258 105T297 99ZM364 395Q338 421 297 421Q250 421 220 382T189 259Q189 237 190 220T197 187L364 395Z" />
<glyph unicode="&#xf9;" glyph-name="ugrave" horiz-adv-x="624" d="M198 -8Q171 -8 146 -2T101 19T69 58T57 120V394Q57 402 49 410T33 419H5V526H236V182Q236 144 254 132T306 119Q324 119 344 124T384 135V419H322V526H563V127Q563 119 571 110T587 101H616V0H420Q406
0 398 13T386 68Q351 33 306 13T198 -8ZM158 647V700H328L354 560H257L158 647Z" />
<glyph unicode="&#xfa;" glyph-name="uacute" horiz-adv-x="624" d="M266 700H435V647L337 560H240L266 700ZM198 -8Q171 -8 146 -2T101 19T69 58T57 120V394Q57 402 49 410T33 419H5V526H236V182Q236 144 254 132T306 119Q324 119 344 124T384 135V419H322V526H563V127Q563
119 571 110T587 101H616V0H420Q406 0 398 13T386 68Q351 33 306 13T198 -8Z" />
<glyph unicode="&#xfb;" glyph-name="ucircumflex" horiz-adv-x="624" d="M158 598L229 700H366L435 598V560H364L293 610L222 560H158V598ZM198 -8Q171 -8 146 -2T101 19T69 58T57 120V394Q57 402 49 410T33 419H5V526H236V182Q236 144 254 132T306 119Q324 119
344 124T384 135V419H322V526H563V127Q563 119 571 110T587 101H616V0H420Q406 0 398 13T386 68Q351 33 306 13T198 -8Z" />
<glyph unicode="&#xfc;" glyph-name="udieresis" horiz-adv-x="624" d="M197 560Q162 560 139 582T115 639Q115 674 138 696T197 718Q232 718 256 696T280 639Q280 604 256 582T197 560ZM396 560Q361 560 338 582T314 639Q314 674 337 696T396 718Q431 718 455
696T479 639Q479 604 455 582T396 560ZM198 -8Q171 -8 146 -2T101 19T69 58T57 120V394Q57 402 49 410T33 419H5V526H236V182Q236 144 254 132T306 119Q324 119 344 124T384 135V419H322V526H563V127Q563 119 571 110T587 101H616V0H420Q406 0 398 13T386 68Q351
33 306 13T198 -8Z" />
<glyph unicode="&#xfd;" glyph-name="yacute" horiz-adv-x="599" d="M79 -71Q119 -60 154 -40T219 9L51 394Q46 405 39 412T21 419H5V526H281V419H219L313 192H315L385 363Q395 386 392 402T361 419H348V526H589V419H570Q560 419 550 411T534 388L378 46Q340 -36
301 -84T219 -162H79V-71ZM283 700H452V647L354 560H257L283 700Z" />
<glyph unicode="&#xfe;" glyph-name="thorn" horiz-adv-x="575" d="M-22 -68H9Q17 -68 25 -60T33 -43V569Q33 577 25 586T9 595H-25V700H184Q211 700 211 662V469Q240 498 277 516T365 535Q402 535 438 522T502 478T547 398T565 277Q565 204 545 153T493 71T420
25T336 11Q293 11 263 20T211 45V-68H269V-162H-22V-68ZM276 111Q296 111 315 117T350 139T374 185T384 261Q384 305 376 333T352 378T318 401T278 407Q262 407 245 403T211 394V126Q236 111 276 111Z" />
<glyph unicode="&#xff;" glyph-name="ydieresis" horiz-adv-x="599" d="M79 -71Q119 -60 154 -40T219 9L51 394Q46 405 39 412T21 419H5V526H281V419H219L313 192H315L385 363Q395 386 392 402T361 419H348V526H589V419H570Q560 419 550 411T534 388L378 46Q340
-36 301 -84T219 -162H79V-71ZM214 560Q179 560 156 582T132 639Q132 674 155 696T214 718Q249 718 273 696T297 639Q297 604 273 582T214 560ZM413 560Q378 560 355 582T331 639Q331 674 354 696T413 718Q448 718 472 696T496 639Q496 604 472 582T413 560Z" />
<glyph unicode="&#x100;" glyph-name="Amacron" horiz-adv-x="739" d="M8 101H27Q54 101 65 132L220 566Q225 577 219 586T202 595H158V700H491L678 126Q681 116 691 109T710 101H731V0H405V101H491L455 215H228L220 191Q205 147 211 124T253 101H288V0H8V101ZM426
311L349 558H347L261 311H426ZM211 858H485V753H211V858Z" />
<glyph unicode="&#x101;" glyph-name="amacron" horiz-adv-x="552" d="M439 -8Q391 -8 365 9T328 57Q299 22 262 8T176 -6Q141 -6 111 3T58 32T22 80T9 148Q9 191 24 222T66 273T131 303T215 313Q247 313 270 311T318 303V346Q318 381 299 397T235 413Q191 413
166 400T122 371H45V497Q84 513 140 524T275 535Q387 535 441 496T496 365V126Q496 118 504 110T520 101H544V16Q525 5 499 -1T439 -8ZM245 96Q267 96 284 103T318 124V220Q289 226 256 226Q220 226 200 211T179 161Q179 126 197 111T245 96ZM126 685H400V580H126V685Z"
/>
<glyph unicode="&#x102;" glyph-name="Abreve" horiz-adv-x="739" d="M8 101H27Q54 101 65 132L220 566Q225 577 219 586T202 595H158V700H491L678 126Q681 116 691 109T710 101H731V0H405V101H491L455 215H228L220 191Q205 147 211 124T253 101H288V0H8V101ZM426
311L349 558H347L261 311H426ZM348 732Q317 732 294 740T254 760T226 789T209 820V876H300Q304 859 315 848T348 837Q369 837 380 848T396 876H487V820Q481 805 470 789T442 761T402 740T348 732Z" />
<glyph unicode="&#x103;" glyph-name="abreve" horiz-adv-x="552" d="M439 -8Q391 -8 365 9T328 57Q299 22 262 8T176 -6Q141 -6 111 3T58 32T22 80T9 148Q9 191 24 222T66 273T131 303T215 313Q247 313 270 311T318 303V346Q318 381 299 397T235 413Q191 413
166 400T122 371H45V497Q84 513 140 524T275 535Q387 535 441 496T496 365V126Q496 118 504 110T520 101H544V16Q525 5 499 -1T439 -8ZM245 96Q267 96 284 103T318 124V220Q289 226 256 226Q220 226 200 211T179 161Q179 126 197 111T245 96ZM263 559Q232 559 209
567T169 587T141 616T124 647V703H215Q219 686 230 675T263 664Q284 664 295 675T311 703H402V647Q396 632 385 616T357 588T317 567T263 559Z" />
<glyph unicode="&#x104;" glyph-name="Aogonek" horiz-adv-x="739" d="M656 -167Q608 -167 581 -147T553 -91Q553 -56 580 -34T640 0H405V101H491L455 215H228L220 191Q205 147 211 124T253 101H288V0H8V101H27Q54 101 65 132L220 566Q225 577 219 586T202 595H158V700H491L678
126Q681 116 691 109T710 101H731V0H705Q691 -14 683 -26T675 -54Q675 -66 683 -73T713 -81H731V-151Q717 -159 700 -163T656 -167ZM426 311L349 558H347L261 311H426Z" />
<glyph unicode="&#x105;" glyph-name="aogonek" horiz-adv-x="552" d="M468 -167Q420 -167 393 -147T365 -91Q365 -62 385 -41T432 -7H429Q385 -5 362 11T328 57Q299 22 262 8T176 -6Q141 -6 111 3T58 32T22 80T9 148Q9 191 24 222T66 273T131 303T215 313Q247
313 270 311T318 303V346Q318 381 299 397T235 413Q191 413 166 400T122 371H45V497Q84 513 140 524T275 535Q387 535 441 496T496 365V126Q496 118 504 110T520 101H544V16Q515 0 501 -17T487 -52Q487 -66 495 -73T526 -81H544V-151Q530 -159 512 -163T468 -167ZM245
96Q267 96 284 103T318 124V220Q289 226 256 226Q220 226 200 211T179 161Q179 126 197 111T245 96Z" />
<glyph unicode="&#x106;" glyph-name="Cacute" horiz-adv-x="634" d="M326 876H495V823L397 736H300L326 876ZM363 -9Q197 -9 106 82T14 346Q14 433 38 501T107 615T215 685T359 709Q400 709 430 706T478 700H613V463H489L470 572Q456 577 433 581T383 585Q347
585 316 572T263 532T229 460T216 354Q216 114 377 114Q429 114 465 136T528 192H619V65Q573 33 508 12T363 -9Z" />
<glyph unicode="&#x107;" glyph-name="cacute" horiz-adv-x="509" d="M248 700H417V647L319 560H222L248 700ZM295 -8Q152 -8 82 62T11 261Q11 325 31 376T88 462T179 516T300 535Q363 535 408 528T482 508V371H382Q369 396 352 409T300 422Q249 422 221 384T193
260Q193 174 219 137T301 100Q342 100 364 115T402 151H483V39Q453 20 407 6T295 -8Z" />
<glyph unicode="&#x108;" glyph-name="Ccircumflex" horiz-adv-x="634" d="M218 774L289 876H426L495 774V736H424L353 786L282 736H218V774ZM363 -9Q197 -9 106 82T14 346Q14 433 38 501T107 615T215 685T359 709Q400 709 430 706T478 700H613V463H489L470 572Q456
577 433 581T383 585Q347 585 316 572T263 532T229 460T216 354Q216 114 377 114Q429 114 465 136T528 192H619V65Q573 33 508 12T363 -9Z" />
<glyph unicode="&#x109;" glyph-name="ccircumflex" horiz-adv-x="509" d="M143 598L214 700H351L420 598V560H349L278 610L207 560H143V598ZM295 -8Q152 -8 82 62T11 261Q11 325 31 376T88 462T179 516T300 535Q363 535 408 528T482 508V371H382Q369 396 352
409T300 422Q249 422 221 384T193 260Q193 174 219 137T301 100Q342 100 364 115T402 151H483V39Q453 20 407 6T295 -8Z" />
<glyph unicode="&#x10a;" glyph-name="Cdotaccent" horiz-adv-x="635" d="M363 -9Q197 -9 106 82T14 346Q14 433 38 501T107 615T215 685T359 709Q400 709 430 706T478 700H613V463H489L470 572Q456 577 433 581T383 585Q347 585 316 572T263 532T229 460T216
354Q216 114 377 114Q429 114 465 136T528 192H619V65Q573 33 508 12T363 -9ZM358 736Q320 736 295 760T269 821Q269 858 294 882T358 906Q396 906 421 882T447 821Q447 784 422 760T358 736Z" />
<glyph unicode="&#x10b;" glyph-name="cdotaccent" horiz-adv-x="508" d="M295 -8Q152 -8 82 62T11 261Q11 325 31 376T88 462T179 516T300 535Q363 535 408 528T482 508V371H382Q369 396 352 409T300 422Q249 422 221 384T193 260Q193 174 219 137T301 100Q342
100 364 115T402 151H483V39Q453 20 407 6T295 -8ZM283 558Q245 558 220 582T194 643Q194 680 219 704T283 728Q321 728 346 704T372 643Q372 606 347 582T283 558Z" />
<glyph unicode="&#x10c;" glyph-name="Ccaron" horiz-adv-x="635" d="M218 838V876H289L360 826L431 876H495V838L424 736H287L218 838ZM363 -9Q197 -9 106 82T14 346Q14 433 38 501T107 615T215 685T359 709Q400 709 430 706T478 700H613V463H489L470 572Q456
577 433 581T383 585Q347 585 316 572T263 532T229 460T216 354Q216 114 377 114Q429 114 465 136T528 192H619V65Q573 33 508 12T363 -9Z" />
<glyph unicode="&#x10d;" glyph-name="ccaron" horiz-adv-x="508" d="M143 662V700H214L285 650L356 700H420V662L349 560H212L143 662ZM295 -8Q152 -8 82 62T11 261Q11 325 31 376T88 462T179 516T300 535Q363 535 408 528T482 508V371H382Q369 396 352 409T300
422Q249 422 221 384T193 260Q193 174 219 137T301 100Q342 100 364 115T402 151H483V39Q453 20 407 6T295 -8Z" />
<glyph unicode="&#x10e;" glyph-name="Dcaron" horiz-adv-x="708" d="M163 835V873H234L305 823L376 873H440V835L369 733H232L163 835ZM10 101H44Q55 101 64 111T73 131V566Q73 575 64 585T44 595H10V700H315Q502 700 598 616T694 354Q694 177 597 89T310 0H10V101ZM310
106Q405 106 451 164T498 349Q498 475 452 531T310 588H263V106H310Z" />
<glyph unicode="&#x10f;" glyph-name="dcaron" horiz-adv-x="620" d="M229 -9Q186 -9 147 5T77 50T30 133T12 260Q12 334 31 386T82 472T153 520T232 535Q285 535 319 517T379 467V595H318V700H529Q543 700 550 690T557 662V127Q557 119 565 110T581 101H612V0H412Q401
0 394 14T383 55Q358 26 320 9T229 -9ZM294 99Q320 99 341 107T379 130V394Q363 401 344 406T304 411Q281 411 261 404T226 380T201 334T192 260Q192 212 200 181T223 132T255 106T294 99ZM586 700H723V647L672 556H580L586 700Z" />
<glyph unicode="&#x110;" glyph-name="Dcroat" horiz-adv-x="708" d="M10 101H44Q55 101 64 111T73 131V296H10V398H73V566Q73 575 64 585T44 595H10V700H315Q502 700 598 616T694 354Q694 177 597 89T310 0H10V101ZM310 106Q405 106 451 164T498 349Q498 475
452 531T310 588H263V398H385V296H263V106H310Z" />
<glyph unicode="&#x111;" glyph-name="dcroat" horiz-adv-x="620" d="M229 -9Q186 -9 147 5T77 50T30 133T12 260Q12 334 31 386T82 472T153 520T232 535Q285 535 319 517T379 467V556H293V639H379V700H529Q543 700 550 691T557 664V639H612V556H557V127Q557 119
565 110T581 101H612V0H412Q401 0 394 14T383 55Q358 26 320 9T229 -9ZM294 99Q320 99 341 107T379 130V394Q363 401 344 406T304 411Q281 411 261 404T226 380T201 334T192 260Q192 212 200 181T223 132T255 106T294 99Z" />
<glyph unicode="&#x112;" glyph-name="Emacron" horiz-adv-x="606" d="M10 101H44Q55 101 64 111T73 131V566Q73 575 64 585T44 595H10V700H585V492H473L456 587H263V409H356L364 470H466V241H364L356 303H263V109H461L477 219H595V0H10V101ZM172 858H446V753H172V858Z" />
<glyph unicode="&#x113;" glyph-name="emacron" horiz-adv-x="545" d="M291 -8Q219 -8 166 10T79 64T28 148T11 260Q11 323 30 374T85 461T171 516T285 535Q409 535 471 472T534 272Q534 256 533 244T532 227H191Q196 161 224 131T308 100Q353 100 376 114T417
151H514V42Q497 32 477 23T429 7T368 -4T291 -8ZM363 319Q359 380 341 405T285 431Q246 431 223 405T193 319H363ZM145 685H419V580H145V685Z" />
<glyph unicode="&#x114;" glyph-name="Ebreve" horiz-adv-x="606" d="M10 101H44Q55 101 64 111T73 131V566Q73 575 64 585T44 595H10V700H585V492H473L456 587H263V409H356L364 470H466V241H364L356 303H263V109H461L477 219H595V0H10V101ZM315 735Q284 735 261
743T221 763T193 792T176 823V879H267Q271 862 282 851T315 840Q336 840 347 851T363 879H454V823Q448 808 437 792T409 764T369 743T315 735Z" />
<glyph unicode="&#x115;" glyph-name="ebreve" horiz-adv-x="545" d="M291 -8Q219 -8 166 10T79 64T28 148T11 260Q11 323 30 374T85 461T171 516T285 535Q409 535 471 472T534 272Q534 256 533 244T532 227H191Q196 161 224 131T308 100Q353 100 376 114T417
151H514V42Q497 32 477 23T429 7T368 -4T291 -8ZM363 319Q359 380 341 405T285 431Q246 431 223 405T193 319H363ZM275 559Q244 559 221 567T181 587T153 616T136 647V703H227Q231 686 242 675T275 664Q296 664 307 675T323 703H414V647Q408 632 397 616T369 588T329
567T275 559Z" />
<glyph unicode="&#x116;" glyph-name="Edotaccent" horiz-adv-x="606" d="M10 101H44Q55 101 64 111T73 131V566Q73 575 64 585T44 595H10V700H585V492H473L456 587H263V409H356L364 470H466V241H364L356 303H263V109H461L477 219H595V0H10V101ZM310 731Q272 731
247 755T221 816Q221 853 246 877T310 901Q348 901 373 877T399 816Q399 779 374 755T310 731Z" />
<glyph unicode="&#x117;" glyph-name="edotaccent" horiz-adv-x="544" d="M291 -8Q219 -8 166 10T79 64T28 148T11 260Q11 323 30 374T85 461T171 516T285 535Q409 535 471 472T534 272Q534 256 533 244T532 227H191Q196 161 224 131T308 100Q353 100 376 114T417
151H514V42Q497 32 477 23T429 7T368 -4T291 -8ZM363 319Q359 380 341 405T285 431Q246 431 223 405T193 319H363ZM283 558Q245 558 220 582T194 643Q194 680 219 704T283 728Q321 728 346 704T372 643Q372 606 347 582T283 558Z" />
<glyph unicode="&#x118;" glyph-name="Eogonek" horiz-adv-x="606" d="M10 101H44Q55 101 64 111T73 131V566Q73 575 64 585T44 595H10V700H585V492H473L456 587H263V409H356L364 470H466V241H364L356 303H263V109H461L477 219H595V0H535Q520 -14 512 -26T504
-54Q504 -66 512 -73T543 -81H561V-151Q547 -159 529 -163T485 -167Q437 -167 410 -147T382 -91Q382 -74 389 -60T409 -34T437 -14T469 0H10V101Z" />
<glyph unicode="&#x119;" glyph-name="eogonek" horiz-adv-x="545" d="M408 -167Q360 -167 333 -147T305 -91Q305 -58 330 -36T391 -1Q370 -4 347 -6T291 -8Q219 -8 166 10T79 64T28 148T11 260Q11 323 30 374T85 461T171 516T284 535Q409 535 471 472T534 272Q534
256 533 244T532 227H191Q196 161 224 131T308 100Q353 100 376 114T417 151H514V43Q427 -10 427 -52Q427 -66 435 -73T466 -81H484V-151Q470 -159 453 -163T408 -167ZM363 319Q359 380 341 405T284 431Q246 431 223 405T193 319H363Z" />
<glyph unicode="&#x11a;" glyph-name="Ecaron" horiz-adv-x="606" d="M170 835V873H241L312 823L383 873H447V835L376 733H239L170 835ZM10 101H44Q55 101 64 111T73 131V566Q73 575 64 585T44 595H10V700H585V492H473L456 587H263V409H356L364 470H466V241H364L356
303H263V109H461L477 219H595V0H10V101Z" />
<glyph unicode="&#x11b;" glyph-name="ecaron" horiz-adv-x="544" d="M143 662V700H214L285 650L356 700H420V662L349 560H212L143 662ZM291 -8Q219 -8 166 10T79 64T28 148T11 260Q11 323 30 374T85 461T171 516T285 535Q409 535 471 472T534 272Q534 256 533
244T532 227H191Q196 161 224 131T308 100Q353 100 376 114T417 151H514V42Q497 32 477 23T429 7T368 -4T291 -8ZM363 319Q359 380 341 405T285 431Q246 431 223 405T193 319H363Z" />
<glyph unicode="&#x11c;" glyph-name="Gcircumflex" horiz-adv-x="676" d="M222 774L293 876H430L499 774V736H428L357 786L286 736H222V774ZM352 -9Q187 -9 101 81T14 346Q14 433 38 501T107 615T216 685T362 709Q400 709 429 706T476 700H610V470H486L467 572Q453
577 431 581T382 585Q346 585 316 572T263 532T229 460T216 354Q216 234 252 172T364 110Q390 110 406 112T438 119V242H378V344H670V241H650Q639 241 631 231T622 211V0H525Q522 6 518 10Q514 14 509 17T497 21Q470 7 434 -1T352 -9Z" />
<glyph unicode="&#x11d;" glyph-name="gcircumflex" horiz-adv-x="536" d="M126 598L197 700H334L403 598V560H332L261 610L190 560H126V598ZM234 -178Q168 -178 122 -170T48 -145T6 -107T-7 -57Q-7 -35 1 -17T23 14T53 37T87 53Q67 64 55 83T42 129Q42 163 60
188T105 230Q32 273 32 362Q32 443 92 489T258 535Q302 535 340 526H525V419H499Q492 419 486 414T477 403Q483 385 483 362Q483 282 423 238T258 194Q204 194 162 206Q161 201 161 195T160 184Q160 167 169 159T199 151H361Q446 151 486 119T526 17Q526 -26 510
-62T459 -123T369 -163T234 -178ZM238 -79Q298 -79 332 -65T367 -25Q367 -8 355 1T309 10H142Q140 2 140 -4T139 -19Q139 -50 160 -64T238 -79ZM259 280Q289 280 307 300T326 362Q326 404 308 423T259 442Q228 442 210 423T191 362Q191 320 209 300T259 280Z" />
<glyph unicode="&#x11e;" glyph-name="Gbreve" horiz-adv-x="676" d="M352 -9Q187 -9 101 81T14 346Q14 433 38 501T107 615T216 685T362 709Q400 709 429 706T476 700H610V470H486L467 572Q453 577 431 581T382 585Q346 585 316 572T263 532T229 460T216 354Q216
234 252 172T364 110Q390 110 406 112T438 119V242H378V344H670V241H650Q639 241 631 231T622 211V0H525Q522 6 518 10Q514 14 509 17T497 21Q470 7 434 -1T352 -9ZM361 735Q330 735 307 743T267 763T239 792T222 823V879H313Q317 862 328 851T361 840Q382 840
393 851T409 879H500V823Q494 808 483 792T455 764T415 743T361 735Z" />
<glyph unicode="&#x11f;" glyph-name="gbreve" horiz-adv-x="536" d="M234 -178Q168 -178 122 -170T48 -145T6 -107T-7 -57Q-7 -35 1 -17T23 14T53 37T87 53Q67 64 55 83T42 129Q42 163 60 188T105 230Q32 273 32 362Q32 443 92 489T258 535Q302 535 340 526H525V419H499Q492
419 486 414T477 403Q483 385 483 362Q483 282 423 238T258 194Q204 194 162 206Q161 201 161 195T160 184Q160 167 169 159T199 151H361Q446 151 486 119T526 17Q526 -26 510 -62T459 -123T369 -163T234 -178ZM238 -79Q298 -79 332 -65T367 -25Q367 -8 355 1T309
10H142Q140 2 140 -4T139 -19Q139 -50 160 -64T238 -79ZM259 280Q289 280 307 300T326 362Q326 404 308 423T259 442Q228 442 210 423T191 362Q191 320 209 300T259 280ZM265 559Q234 559 211 567T171 587T143 616T126 647V703H217Q221 686 232 675T265 664Q286
664 297 675T313 703H404V647Q398 632 387 616T359 588T319 567T265 559Z" />
<glyph unicode="&#x120;" glyph-name="Gdotaccent" horiz-adv-x="679" d="M352 -9Q187 -9 101 81T14 346Q14 433 38 501T107 615T216 685T362 709Q400 709 429 706T476 700H610V470H486L467 572Q453 577 431 581T382 585Q346 585 316 572T263 532T229 460T216
354Q216 234 252 172T364 110Q390 110 406 112T438 119V242H378V344H670V241H650Q639 241 631 231T622 211V0H525Q522 6 518 10Q514 14 509 17T497 21Q470 7 434 -1T352 -9ZM362 734Q324 734 299 758T273 819Q273 856 298 880T362 904Q400 904 425 880T451 819Q451
782 426 758T362 734Z" />
<glyph unicode="&#x121;" glyph-name="gdotaccent" horiz-adv-x="535" d="M234 -178Q168 -178 122 -170T48 -145T6 -107T-7 -57Q-7 -35 1 -17T23 14T53 37T87 53Q67 64 55 83T42 129Q42 163 60 188T105 230Q32 273 32 362Q32 443 92 489T258 535Q302 535 340 526H525V419H499Q492
419 486 414T477 403Q483 385 483 362Q483 282 423 238T258 194Q204 194 162 206Q161 201 161 195T160 184Q160 167 169 159T199 151H361Q446 151 486 119T526 17Q526 -26 510 -62T459 -123T369 -163T234 -178ZM238 -79Q298 -79 332 -65T367 -25Q367 -8 355 1T309
10H142Q140 2 140 -4T139 -19Q139 -50 160 -64T238 -79ZM259 280Q289 280 307 300T326 362Q326 404 308 423T259 442Q228 442 210 423T191 362Q191 320 209 300T259 280ZM266 558Q228 558 203 582T177 643Q177 680 202 704T266 728Q304 728 329 704T355 643Q355
606 330 582T266 558Z" />
<glyph unicode="&#x122;" glyph-name="Gcommaaccent" horiz-adv-x="679" d="M281 -170Q328 -166 328 -143Q328 -134 320 -130T303 -120Q292 -113 287 -103T281 -75Q281 -50 300 -35T348 -19Q379 -19 400 -38T422 -96Q422 -217 281 -227V-170ZM352 -9Q187 -9 101
81T14 346Q14 433 38 501T107 615T216 685T362 709Q400 709 429 706T476 700H610V470H486L467 572Q453 577 431 581T382 585Q346 585 316 572T263 532T229 460T216 354Q216 234 252 172T364 110Q390 110 406 112T438 119V242H378V344H670V241H650Q639 241 631 231T622
211V0H525Q522 6 518 10Q514 14 509 17T497 21Q470 7 434 -1T352 -9Z" />
<glyph unicode="&#x123;" glyph-name="gcommaaccent" horiz-adv-x="535" d="M265 553Q234 553 213 572T191 630Q191 693 225 724T332 761V704Q285 700 285 677Q285 668 293 664T310 654Q321 647 326 637T332 609Q332 584 313 569T265 553ZM234 -178Q168 -178 122
-170T48 -145T6 -107T-7 -57Q-7 -35 1 -17T23 14T53 37T87 53Q67 64 55 83T42 129Q42 163 60 188T105 230Q32 273 32 362Q32 443 92 489T258 535Q302 535 340 526H525V419H499Q492 419 486 414T477 403Q483 385 483 362Q483 282 423 238T258 194Q204 194 162 206Q161
201 161 195T160 184Q160 167 169 159T199 151H361Q446 151 486 119T526 17Q526 -26 510 -62T459 -123T369 -163T234 -178ZM238 -79Q298 -79 332 -65T367 -25Q367 -8 355 1T309 10H142Q140 2 140 -4T139 -19Q139 -50 160 -64T238 -79ZM259 280Q289 280 307 300T326
362Q326 404 308 423T259 442Q228 442 210 423T191 362Q191 320 209 300T259 280Z" />
<glyph unicode="&#x124;" glyph-name="Hcircumflex" horiz-adv-x="743" d="M232 771L303 873H440L509 771V733H438L367 783L296 733H232V771ZM10 101H44Q55 101 64 111T73 131V566Q73 575 64 585T44 595H10V700H334V595H263V407H480V595H409V700H733V595H699Q688
595 679 585T670 566V131Q670 122 679 112T699 101H733V0H409V101H480V305H263V101H334V0H10V101Z" />
<glyph unicode="&#x125;" glyph-name="hcircumflex" horiz-adv-x="624" d="M176 755L247 857H384L453 755V717H382L311 767L240 717H176V755ZM8 101H39Q47 101 55 109T63 126V570Q63 578 55 586T39 595H5V700H213Q241 700 241 662V458Q276 492 324 513T432 535Q459
535 483 529T527 508T557 468T568 406V126Q568 118 576 110T593 101H616V0H341V101H390V341Q390 376 375 388T323 400Q303 400 282 396T241 387V101H292V0H8V101Z" />
<glyph unicode="&#x126;" glyph-name="Hbar" horiz-adv-x="743" d="M10 101H44Q55 101 64 111T73 131V466H7V534H73V566Q73 575 64 585T44 595H10V700H334V595H263V534H480V595H409V700H733V595H699Q688 595 679 585T670 566V534H735V466H670V131Q670 122 679
112T699 101H733V0H409V101H480V302H263V101H334V0H10V101ZM480 403V466H263V403H480Z" />
<glyph unicode="&#x127;" glyph-name="hbar" horiz-adv-x="627" d="M343 101H392V341Q392 376 377 388T325 400Q305 400 284 396T243 387V101H294V0H10V101H40Q49 101 57 109T65 126V556H9V639H65V700H215Q243 700 243 662V639H334V556H243V458Q278 492 326 513T434
535Q461 535 485 529T529 508T559 468T570 406V126Q570 118 578 110T595 101H617V0H343V101Z" />
<glyph unicode="&#x12a;" glyph-name="Imacron" horiz-adv-x="348" d="M10 101H51Q61 101 70 111T79 131V566Q79 575 70 585T51 595H10V700H339V595H297Q287 595 279 585T270 566V131Q270 122 278 112T297 101H339V0H10V101ZM39 858H313V753H39V858Z" />
<glyph unicode="&#x12b;" glyph-name="imacron" horiz-adv-x="308" d="M8 101H41Q49 101 57 109T65 126V393Q65 401 57 410T41 419H5V526H217Q244 526 244 473V126Q244 118 252 110T269 101H301V0H8V101ZM258 685H532V580H258V685Z" />
<glyph unicode="&#x12e;" glyph-name="Iogonek" horiz-adv-x="348" d="M233 -167Q185 -167 158 -147T130 -91Q130 -56 157 -34T218 0H10V101H51Q61 101 70 111T79 131V566Q79 575 70 585T51 595H10V700H339V595H297Q287 595 279 585T270 566V131Q270 122 278 112T297
101H339V0H283Q268 -15 260 -26T252 -54Q252 -66 260 -73T291 -81H309V-151Q295 -159 278 -163T233 -167Z" />
<glyph unicode="&#x12f;" glyph-name="iogonek" horiz-adv-x="308" d="M206 -167Q158 -167 131 -147T104 -91Q104 -56 131 -34T191 0H8V101H41Q49 101 57 109T65 126V393Q65 401 57 410T41 419H5V526H217Q244 526 244 473V126Q244 118 252 110T269 101H301V0H256Q242
-14 234 -26T225 -54Q225 -66 233 -73T264 -81H282V-151Q268 -159 251 -163T206 -167ZM153 558Q115 558 90 582T64 643Q64 680 89 704T153 728Q191 728 216 704T242 643Q242 606 217 582T153 558Z" />
<glyph unicode="&#x130;" glyph-name="Idotaccent" horiz-adv-x="349" d="M10 101H51Q61 101 70 111T79 131V566Q79 575 70 585T51 595H10V700H339V595H297Q287 595 279 585T270 566V131Q270 122 278 112T297 101H339V0H10V101ZM177 731Q139 731 114 755T88 816Q88
853 113 877T177 901Q215 901 240 877T266 816Q266 779 241 755T177 731Z" />
<glyph unicode="&#x131;" glyph-name="dotlessi" horiz-adv-x="308" d="M8 101H41Q49 101 57 109T65 126V393Q65 401 57 410T41 419H5V526H217Q244 526 244 473V126Q244 118 252 110T269 101H301V0H8V101Z" />
<glyph unicode="&#x134;" glyph-name="Jcircumflex" horiz-adv-x="515" d="M200 771L271 873H408L477 771V733H406L335 783L264 733H200V771ZM190 -8Q132 -8 90 1T11 28V155H107Q118 137 135 125T181 112Q245 112 245 186V566Q245 575 236 585T218 595H174V700H505V595H464Q453
595 445 585T437 566V193Q437 88 378 40T190 -8Z" />
<glyph unicode="&#x135;" glyph-name="jcircumflex" horiz-adv-x="283" d="M260 598L331 700H468L537 598V560H466L395 610L324 560H260V598ZM62 -169Q32 -169 9 -166T-33 -157V-67H-2Q36 -67 50 -53T65 -6V393Q65 401 57 410T41 419H5V526H217Q244 526 244 473V-15Q244
-102 197 -135T62 -169Z" />
<glyph unicode="&#x136;" glyph-name="Kcommaaccent" horiz-adv-x="714" d="M317 -170Q364 -166 364 -143Q364 -134 356 -130T339 -120Q328 -113 323 -103T317 -75Q317 -50 336 -35T384 -19Q415 -19 436 -38T458 -96Q458 -217 317 -227V-170ZM10 101H44Q55 101
64 111T73 131V566Q73 575 64 585T44 595H10V700H325V595H263V367L429 538Q455 564 450 579T418 595H405V700H698V595H678Q665 595 654 587T626 563L468 408L651 128Q658 119 665 110T684 101H704V0H462V90L333 294L263 229V101H326V0H10V101Z" />
<glyph unicode="&#x137;" glyph-name="kcommaaccent" horiz-adv-x="598" d="M266 -170Q313 -166 313 -143Q313 -134 305 -130T288 -120Q277 -113 272 -103T266 -75Q266 -50 285 -35T333 -19Q364 -19 385 -38T407 -96Q407 -217 266 -227V-170ZM8 101H38Q46 101
54 109T63 126V569Q63 577 55 586T38 595H5V700H213Q241 700 241 662V284L346 382Q361 396 359 409T339 422H320V526H586V419H562Q553 419 543 415T525 403L424 309L544 128Q561 101 579 101H590V0H368V90L292 206L241 161V101H289V0H8V101Z" />
<glyph unicode="&#x139;" glyph-name="Lacute" horiz-adv-x="585" d="M149 873H318V820L220 733H123L149 873ZM10 101H44Q55 101 64 111T73 131V566Q73 575 64 585T44 595H10V700H351V595H263V109H439L455 245H575V0H10V101Z" />
<glyph unicode="&#x13a;" glyph-name="lacute" horiz-adv-x="314" d="M111 857H280V804L182 717H85L111 857ZM8 101H42Q50 101 58 109T67 126V569Q67 577 59 586T42 595H5V700H217Q245 700 245 662V126Q245 118 253 110T270 101H306V0H8V101Z" />
<glyph unicode="&#x13b;" glyph-name="Lcommaaccent" horiz-adv-x="586" d="M224 -170Q271 -166 271 -143Q271 -134 263 -130T246 -120Q235 -113 230 -103T224 -75Q224 -50 243 -35T291 -19Q322 -19 343 -38T365 -96Q365 -217 224 -227V-170ZM10 101H44Q55 101
64 111T73 131V566Q73 575 64 585T44 595H10V700H351V595H263V109H439L455 245H575V0H10V101Z" />
<glyph unicode="&#x13c;" glyph-name="lcommaaccent" horiz-adv-x="314" d="M348 -170Q395 -166 395 -143Q395 -134 387 -130T370 -120Q359 -113 354 -103T348 -75Q348 -50 367 -35T415 -19Q446 -19 467 -38T489 -96Q489 -217 348 -227V-170ZM8 101H42Q50 101
58 109T67 126V569Q67 577 59 586T42 595H5V700H217Q245 700 245 662V126Q245 118 253 110T270 101H306V0H8V101Z" />
<glyph unicode="&#x13d;" glyph-name="Lcaron" horiz-adv-x="586" d="M10 101H44Q55 101 64 111T73 131V566Q73 575 64 585T44 595H10V700H351V595H263V109H439L455 245H575V0H10V101ZM398 700H535V647L484 554H392L398 700Z" />
<glyph unicode="&#x13e;" glyph-name="lcaron" horiz-adv-x="314" d="M8 101H43Q51 101 59 109T67 126V569Q67 577 59 586T43 595H6V700H217Q245 700 245 662V126Q245 118 253 110T270 101H306V0H8V101ZM275 700H412V647L361 556H269L275 700Z" />
<glyph unicode="&#x141;" glyph-name="Lslash" horiz-adv-x="585" d="M10 101H44Q55 101 64 111T73 131V233L10 209V314L73 338V566Q73 575 64 585T44 595H10V700H351V595H263V412L429 476V371L263 307V109H439L455 244H575V0H10V101Z" />
<glyph unicode="&#x142;" glyph-name="lslash" horiz-adv-x="313" d="M8 101H42Q50 101 58 109T67 126V290L9 257V359L67 392V569Q67 577 59 586T42 595H5V700H217Q245 700 245 662V494L302 528V426L245 392V126Q245 118 253 110T270 101H306V0H8V101Z" />
<glyph unicode="&#x143;" glyph-name="Nacute" horiz-adv-x="718" d="M334 873H503V820L405 733H308L334 873ZM10 101H44Q55 101 64 111T73 131V566Q73 575 64 585T44 595H10V700H259L507 290H510V595H439V700H708V595H676Q666 595 657 585T648 566V0H485L213
448H210V101H283V0H10V101Z" />
<glyph unicode="&#x144;" glyph-name="nacute" horiz-adv-x="624" d="M282 700H451V647L353 560H256L282 700ZM8 101H39Q47 101 55 109T64 126V393Q64 401 56 410T39 419H5V526H206Q220 526 228 512T240 456Q275 491 323 513T432 535Q459 535 483 529T527 508T557
468T568 406V126Q568 118 576 110T593 101H616V0H341V101H391V341Q391 376 375 388T324 400Q303 400 282 396T241 387V101H292V0H8V101Z" />
<glyph unicode="&#x145;" glyph-name="Ncommaaccent" horiz-adv-x="718" d="M303 -170Q350 -166 350 -143Q350 -134 342 -130T325 -120Q314 -113 309 -103T303 -75Q303 -50 322 -35T370 -19Q401 -19 422 -38T444 -96Q444 -217 303 -227V-170ZM10 101H44Q55 101
64 111T73 131V566Q73 575 64 585T44 595H10V700H259L507 290H510V595H439V700H708V595H676Q666 595 657 585T648 566V0H485L213 448H210V101H283V0H10V101Z" />
<glyph unicode="&#x146;" glyph-name="ncommaaccent" horiz-adv-x="624" d="M250 -170Q297 -166 297 -143Q297 -134 289 -130T272 -120Q261 -113 256 -103T250 -75Q250 -50 269 -35T317 -19Q348 -19 369 -38T391 -96Q391 -217 250 -227V-170ZM8 101H39Q47 101
55 109T64 126V393Q64 401 56 410T39 419H5V526H206Q220 526 228 512T240 456Q275 491 323 513T432 535Q459 535 483 529T527 508T557 468T568 406V126Q568 118 576 110T593 101H616V0H341V101H391V341Q391 376 375 388T324 400Q303 400 282 396T241 387V101H292V0H8V101Z"
/>
<glyph unicode="&#x147;" glyph-name="Ncaron" horiz-adv-x="718" d="M226 835V873H297L368 823L439 873H503V835L432 733H295L226 835ZM10 101H44Q55 101 64 111T73 131V566Q73 575 64 585T44 595H10V700H259L507 290H510V595H439V700H708V595H676Q666 595 657
585T648 566V0H485L213 448H210V101H283V0H10V101Z" />
<glyph unicode="&#x148;" glyph-name="ncaron" horiz-adv-x="624" d="M174 662V700H245L316 650L387 700H451V662L380 560H243L174 662ZM8 101H39Q47 101 55 109T64 126V393Q64 401 56 410T39 419H5V526H206Q220 526 228 512T240 456Q275 491 323 513T432 535Q459
535 483 529T527 508T557 468T568 406V126Q568 118 576 110T593 101H616V0H341V101H391V341Q391 376 375 388T324 400Q303 400 282 396T241 387V101H292V0H8V101Z" />
<glyph unicode="&#x14c;" glyph-name="Omacron" horiz-adv-x="732" d="M228 861H502V756H228V861ZM366 111Q400 111 428 125T478 169T510 243T522 347Q522 406 511 450T478 523T429 566T366 581Q297 581 254 524T210 347Q210 228 253 170T366 111ZM366 -9Q293
-9 229 14T117 84T42 196T14 350Q14 437 42 503T118 616T230 685T366 709Q438 709 501 686T613 616T689 504T717 350Q717 263 690 197T615 84T503 15T366 -9Z" />
<glyph unicode="&#x14d;" glyph-name="omacron" horiz-adv-x="592" d="M158 685H432V580H158V685ZM297 101Q342 101 371 139T401 259Q401 341 372 380T297 419Q251 419 222 380T192 259Q192 178 221 140T297 101ZM297 -8Q236 -8 184 10T94 62T33 147T11 260Q11
323 33 374T93 461T184 516T297 535Q357 535 409 516T499 461T559 374T581 260Q581 197 560 147T500 63T409 10T297 -8Z" />
<glyph unicode="&#x150;" glyph-name="Ohungarumlaut" horiz-adv-x="732" d="M243 876H385V825L316 736H223L243 876ZM421 876H562V825L493 736H401L421 876ZM366 111Q400 111 428 125T478 169T510 243T522 347Q522 406 511 450T478 523T429 566T366 581Q297 581
254 524T210 347Q210 228 253 170T366 111ZM366 -9Q293 -9 229 14T117 84T42 196T14 350Q14 437 42 503T118 616T230 685T366 709Q438 709 501 686T613 616T689 504T717 350Q717 263 690 197T615 84T503 15T366 -9Z" />
<glyph unicode="&#x151;" glyph-name="ohungarumlaut" horiz-adv-x="592" d="M173 700H315V649L246 560H153L173 700ZM351 700H492V649L423 560H331L351 700ZM297 101Q342 101 371 139T401 259Q401 341 372 380T297 419Q251 419 222 380T192 259Q192 178 221 140T297
101ZM297 -8Q236 -8 184 10T94 62T33 147T11 260Q11 323 33 374T93 461T184 516T297 535Q357 535 409 516T499 461T559 374T581 260Q581 197 560 147T500 63T409 10T297 -8Z" />
<glyph unicode="&#x152;" glyph-name="OE" horiz-adv-x="967" d="M392 0Q206 0 110 83T14 346Q14 523 111 611T398 700H945V492H833L816 587H626V409H716L724 470H827V241H724L717 303H626V109H822L838 221H955V0H392ZM398 588Q303 588 257 532T210 350Q210 224
256 167T398 109H435V588H398Z" />
<glyph unicode="&#x153;" glyph-name="oe" horiz-adv-x="924" d="M289 -8Q229 -8 179 10T91 62T32 147T11 260Q11 323 32 374T90 461T178 516T289 535Q350 535 399 515T482 457Q512 495 558 515T668 535Q792 535 852 472T913 272Q913 256 912 244T910 227H575Q580
161 607 131T690 100Q712 100 728 104T757 114T778 130T796 151H893V42Q876 32 856 23T810 7T752 -4T679 -8Q607 -8 559 11T480 66Q411 -8 289 -8ZM293 101Q339 101 367 139T395 259Q395 341 367 380T293 419Q247 419 220 380T192 259Q192 178 219 140T293 101ZM742
319Q739 380 722 405T666 431Q628 431 606 405T576 319H742Z" />
<glyph unicode="&#x154;" glyph-name="Racute" horiz-adv-x="682" d="M275 873H444V820L346 733H249L275 873ZM10 101H44Q55 101 64 111T73 131V566Q73 575 64 585T44 595H10V700H332Q474 700 546 651T618 502Q618 435 581 398T469 343V339Q497 333 518 324T556
297T584 253T606 186L621 126Q625 112 632 107T646 101H672V0H448L419 190Q416 217 409 235T391 265T361 281T317 286H263V101H340V0H10V101ZM320 383Q352 383 372 390T405 410T421 443T426 486Q426 509 422 528T405 560T373 581T320 588H260V383H320Z" />
<glyph unicode="&#x155;" glyph-name="racute" horiz-adv-x="426" d="M198 700H367V647L269 560H172L198 700ZM8 101H39Q47 101 55 109T64 126V393Q64 401 56 410T39 419H5V526H206Q219 526 228 511T240 452Q265 485 297 508T381 532Q389 532 396 531T413 526V394H389Q334
394 299 387T241 370V101H307V0H8V101Z" />
<glyph unicode="&#x156;" glyph-name="Rcommaaccent" horiz-adv-x="682" d="M279 -170Q326 -166 326 -143Q326 -134 318 -130T301 -120Q290 -113 285 -103T279 -75Q279 -50 298 -35T346 -19Q377 -19 398 -38T420 -96Q420 -217 279 -227V-170ZM10 101H44Q55 101
64 111T73 131V566Q73 575 64 585T44 595H10V700H332Q474 700 546 651T618 502Q618 435 581 398T469 343V339Q497 333 518 324T556 297T584 253T606 186L621 126Q625 112 632 107T646 101H672V0H448L419 190Q416 217 409 235T391 265T361 281T317 286H263V101H340V0H10V101ZM320
383Q352 383 372 390T405 410T421 443T426 486Q426 509 422 528T405 560T373 581T320 588H260V383H320Z" />
<glyph unicode="&#x157;" glyph-name="rcommaaccent" horiz-adv-x="426" d="M342 -170Q389 -166 389 -143Q389 -134 381 -130T364 -120Q353 -113 348 -103T342 -75Q342 -50 361 -35T409 -19Q440 -19 461 -38T483 -96Q483 -217 342 -227V-170ZM8 101H39Q47 101
55 109T64 126V393Q64 401 56 410T39 419H5V526H206Q219 526 228 511T240 452Q265 485 297 508T381 532Q389 532 396 531T413 526V394H389Q334 394 299 387T241 370V101H307V0H8V101Z" />
<glyph unicode="&#x158;" glyph-name="Rcaron" horiz-adv-x="682" d="M167 835V873H238L309 823L380 873H444V835L373 733H236L167 835ZM10 101H44Q55 101 64 111T73 131V566Q73 575 64 585T44 595H10V700H332Q474 700 546 651T618 502Q618 435 581 398T469 343V339Q497
333 518 324T556 297T584 253T606 186L621 126Q625 112 632 107T646 101H672V0H448L419 190Q416 217 409 235T391 265T361 281T317 286H263V101H340V0H10V101ZM320 383Q352 383 372 390T405 410T421 443T426 486Q426 509 422 528T405 560T373 581T320 588H260V383H320Z"
/>
<glyph unicode="&#x159;" glyph-name="rcaron" horiz-adv-x="426" d="M90 662V700H161L232 650L303 700H367V662L296 560H159L90 662ZM8 101H39Q47 101 55 109T64 126V393Q64 401 56 410T39 419H5V526H206Q219 526 228 511T240 452Q265 485 297 508T381 532Q389
532 396 531T413 526V394H389Q334 394 299 387T241 370V101H307V0H8V101Z" />
<glyph unicode="&#x15a;" glyph-name="Sacute" horiz-adv-x="541" d="M244 876H413V823L315 736H218L244 876ZM258 -9Q223 -9 196 -7T146 0H13V215H140L156 116Q171 111 190 108T240 105Q345 105 345 188Q345 213 333 228T300 253T251 271T190 288Q154 298 123
313T69 352T33 411T20 495Q20 549 38 589T88 656T167 696T269 709Q311 709 339 707T385 700H503V504H378L362 588Q348 593 331 596T287 599Q238 599 212 580T186 522Q186 499 196 484T225 460T266 443T316 429Q370 415 409 398T473 357T511 299T524 217Q524 106
458 49T258 -9Z" />
<glyph unicode="&#x15b;" glyph-name="sacute" horiz-adv-x="462" d="M205 700H374V647L276 560H179L205 700ZM214 -7Q139 -7 92 1T11 21V151H108Q119 125 147 112T208 98Q243 98 263 110T284 146Q284 158 280 166T264 181T235 191T187 199Q144 205 112 216T58
246T25 294T14 364Q14 449 74 491T240 534Q307 534 352 527T432 509V384H337Q324 404 302 416T242 428Q169 428 169 385Q169 376 173 369T187 355T216 344T264 335Q312 329 347 319T406 290T440 243T451 171Q451 87 395 40T214 -7Z" />
<glyph unicode="&#x15c;" glyph-name="Scircumflex" horiz-adv-x="541" d="M136 774L207 876H344L413 774V736H342L271 786L200 736H136V774ZM258 -9Q223 -9 196 -7T146 0H13V215H140L156 116Q171 111 190 108T240 105Q345 105 345 188Q345 213 333 228T300 253T251
271T190 288Q154 298 123 313T69 352T33 411T20 495Q20 549 38 589T88 656T167 696T269 709Q311 709 339 707T385 700H503V504H378L362 588Q348 593 331 596T287 599Q238 599 212 580T186 522Q186 499 196 484T225 460T266 443T316 429Q370 415 409 398T473 357T511
299T524 217Q524 106 458 49T258 -9Z" />
<glyph unicode="&#x15d;" glyph-name="scircumflex" horiz-adv-x="462" d="M97 598L168 700H305L374 598V560H303L232 610L161 560H97V598ZM214 -7Q139 -7 92 1T11 21V151H108Q119 125 147 112T208 98Q243 98 263 110T284 146Q284 158 280 166T264 181T235 191T187
199Q144 205 112 216T58 246T25 294T14 364Q14 449 74 491T240 534Q307 534 352 527T432 509V384H337Q324 404 302 416T242 428Q169 428 169 385Q169 376 173 369T187 355T216 344T264 335Q312 329 347 319T406 290T440 243T451 171Q451 87 395 40T214 -7Z" />
<glyph unicode="&#x15e;" glyph-name="Scedilla" horiz-adv-x="541" d="M252 -175Q224 -175 204 -170T167 -158V-98H208Q212 -103 219 -107T238 -111Q262 -111 262 -92Q262 -72 231 -72H208V-7Q190 -6 175 -4T146 0H13V215H140L156 116Q171 111 190 108T240 105Q345
105 345 188Q345 213 333 228T300 253T251 271T190 288Q154 298 123 313T69 352T33 411T20 495Q20 549 38 589T88 656T167 696T269 709Q311 709 339 707T385 700H503V504H378L362 588Q348 593 331 596T287 599Q238 599 212 580T186 522Q186 499 196 484T225 460T266
443T316 429Q370 415 409 398T473 357T511 299T524 217Q524 111 464 54T279 -8V-25Q322 -27 342 -46T362 -98Q362 -134 334 -154T252 -175Z" />
<glyph unicode="&#x15f;" glyph-name="scedilla" horiz-adv-x="462" d="M218 -175Q190 -175 170 -170T133 -158V-98H174Q178 -103 185 -107T204 -111Q228 -111 228 -92Q228 -72 197 -72H174V-6Q117 -4 79 4T11 21V151H108Q119 125 147 112T208 98Q243 98 263 110T284
146Q284 158 280 166T264 181T235 191T187 199Q144 205 112 216T58 246T25 294T14 364Q14 449 74 491T240 534Q307 534 352 527T432 509V384H337Q324 404 302 416T242 428Q169 428 169 385Q169 376 173 369T187 355T216 344T264 335Q312 329 347 319T406 290T440
243T451 171Q451 92 402 46T245 -6V-25Q288 -27 308 -46T328 -98Q328 -134 300 -154T218 -175Z" />
<glyph unicode="&#x160;" glyph-name="Scaron" horiz-adv-x="541" d="M136 838V876H207L278 826L349 876H413V838L342 736H205L136 838ZM258 -9Q223 -9 196 -7T146 0H13V215H140L156 116Q171 111 190 108T240 105Q345 105 345 188Q345 213 333 228T300 253T251
271T190 288Q154 298 123 313T69 352T33 411T20 495Q20 549 38 589T88 656T167 696T269 709Q311 709 339 707T385 700H503V504H378L362 588Q348 593 331 596T287 599Q238 599 212 580T186 522Q186 499 196 484T225 460T266 443T316 429Q370 415 409 398T473 357T511
299T524 217Q524 106 458 49T258 -9Z" />
<glyph unicode="&#x161;" glyph-name="scaron" horiz-adv-x="462" d="M97 662V700H168L239 650L310 700H374V662L303 560H166L97 662ZM214 -7Q139 -7 92 1T11 21V151H108Q119 125 147 112T208 98Q243 98 263 110T284 146Q284 158 280 166T264 181T235 191T187
199Q144 205 112 216T58 246T25 294T14 364Q14 449 74 491T240 534Q307 534 352 527T432 509V384H337Q324 404 302 416T242 428Q169 428 169 385Q169 376 173 369T187 355T216 344T264 335Q312 329 347 319T406 290T440 243T451 171Q451 87 395 40T214 -7Z" />
<glyph unicode="&#x162;" glyph-name="Tcommaaccent" horiz-adv-x="652" d="M258 -170Q305 -166 305 -143Q305 -134 297 -130T280 -120Q269 -113 264 -103T258 -75Q258 -50 277 -35T325 -19Q356 -19 377 -38T399 -96Q399 -217 258 -227V-170ZM163 101H202Q213
101 221 111T230 131V591H143L130 452H14V700H638V452H523L509 591H421V131Q421 122 430 112T449 101H489V0H163V101Z" />
<glyph unicode="&#x163;" glyph-name="tcommaaccent" horiz-adv-x="350" d="M134 -170Q181 -166 181 -143Q181 -134 173 -130T156 -120Q145 -113 140 -103T134 -75Q134 -50 153 -35T201 -19Q232 -19 253 -38T275 -96Q275 -217 134 -227V-170ZM238 -9Q197 -9 165
-2T110 21T75 66T62 138V419H5V526H62V665H240V526H338V419H240V164Q240 125 255 113T310 101H338V5Q320 0 296 -4T238 -9Z" />
<glyph unicode="&#x164;" glyph-name="Tcaron" horiz-adv-x="652" d="M186 835V873H257L328 823L399 873H463V835L392 733H255L186 835ZM163 101H202Q213 101 221 111T230 131V591H143L130 452H14V700H638V452H523L509 591H421V131Q421 122 430 112T449 101H489V0H163V101Z"
/>
<glyph unicode="&#x165;" glyph-name="tcaron" horiz-adv-x="346" d="M275 700H412V647L361 556H269L275 700ZM238 -9Q197 -9 165 -2T110 21T75 66T62 138V419H5V526H62V665H240V526H338V419H240V164Q240 125 255 113T310 101H338V5Q320 0 296 -4T238 -9Z" />
<glyph unicode="&#x16a;" glyph-name="Umacron" horiz-adv-x="719" d="M363 -8Q218 -8 145 60T71 262V566Q71 575 63 585T43 595H10V700H337V595H262V251Q262 211 270 185T293 142T331 119T384 112Q414 112 437 119T475 142T499 184T507 251V595H433V700H709V595H677Q667
595 658 585T649 566V262Q649 128 580 60T363 -8ZM248 858H522V753H248V858Z" />
<glyph unicode="&#x16b;" glyph-name="umacron" horiz-adv-x="624" d="M198 -8Q171 -8 146 -2T101 19T69 58T57 120V394Q57 402 49 410T33 419H5V526H236V182Q236 144 254 132T306 119Q324 119 344 124T384 135V419H322V526H563V127Q563 119 571 110T587 101H616V0H420Q406
0 398 13T386 68Q351 33 306 13T198 -8ZM160 685H434V580H160V685Z" />
<glyph unicode="&#x16c;" glyph-name="Ubreve" horiz-adv-x="719" d="M363 -8Q218 -8 145 60T71 262V566Q71 575 63 585T43 595H10V700H337V595H262V251Q262 211 270 185T293 142T331 119T384 112Q414 112 437 119T475 142T499 184T507 251V595H433V700H709V595H677Q667
595 658 585T649 566V262Q649 128 580 60T363 -8ZM385 732Q354 732 331 740T291 760T263 789T246 820V876H337Q341 859 352 848T385 837Q406 837 417 848T433 876H524V820Q518 805 507 789T479 761T439 740T385 732Z" />
<glyph unicode="&#x16d;" glyph-name="ubreve" horiz-adv-x="624" d="M198 -8Q171 -8 146 -2T101 19T69 58T57 120V394Q57 402 49 410T33 419H5V526H236V182Q236 144 254 132T306 119Q324 119 344 124T384 135V419H322V526H563V127Q563 119 571 110T587 101H616V0H420Q406
0 398 13T386 68Q351 33 306 13T198 -8ZM297 559Q266 559 243 567T203 587T175 616T158 647V703H249Q253 686 264 675T297 664Q318 664 329 675T345 703H436V647Q430 632 419 616T391 588T351 567T297 559Z" />
<glyph unicode="&#x16e;" glyph-name="Uring" horiz-adv-x="719" d="M385 772Q407 772 420 786T434 823Q434 847 421 860T385 874Q363 874 350 861T337 823Q337 800 350 786T385 772ZM385 721Q342 721 310 748T278 823Q278 846 286 865T310 897T344 918T385 925Q406
925 425 918T460 898T483 865T492 823Q492 775 460 748T385 721ZM363 -8Q218 -8 145 60T71 262V566Q71 575 63 585T43 595H10V700H337V595H262V251Q262 211 270 185T293 142T331 119T384 112Q414 112 437 119T475 142T499 184T507 251V595H433V700H709V595H677Q667
595 658 585T649 566V262Q649 128 580 60T363 -8Z" />
<glyph unicode="&#x16f;" glyph-name="uring" horiz-adv-x="624" d="M297 613Q319 613 332 627T346 664Q346 688 333 701T297 715Q275 715 262 702T249 664Q249 641 262 627T297 613ZM297 562Q254 562 222 589T190 664Q190 687 198 706T222 738T256 759T297 766Q318
766 337 759T372 739T395 706T404 664Q404 616 372 589T297 562ZM198 -8Q171 -8 146 -2T101 19T69 58T57 120V394Q57 402 49 410T33 419H5V526H236V182Q236 144 254 132T306 119Q324 119 344 124T384 135V419H322V526H563V127Q563 119 571 110T587 101H616V0H420Q406
0 398 13T386 68Q351 33 306 13T198 -8Z" />
<glyph unicode="&#x170;" glyph-name="Uhungarumlaut" horiz-adv-x="719" d="M363 -8Q218 -8 145 60T71 262V566Q71 575 63 585T43 595H10V700H337V595H262V251Q262 211 270 185T293 142T331 119T384 112Q414 112 437 119T475 142T499 184T507 251V595H433V700H709V595H677Q667
595 658 585T649 566V262Q649 128 580 60T363 -8ZM263 873H405V822L336 733H243L263 873ZM441 873H582V822L513 733H421L441 873Z" />
<glyph unicode="&#x171;" glyph-name="uhungarumlaut" horiz-adv-x="624" d="M198 -8Q171 -8 146 -2T101 19T69 58T57 120V394Q57 402 49 410T33 419H5V526H236V182Q236 144 254 132T306 119Q324 119 344 124T384 135V419H322V526H563V127Q563 119 571 110T587
101H616V0H420Q406 0 398 13T386 68Q351 33 306 13T198 -8ZM175 700H317V649L248 560H155L175 700ZM353 700H494V649L425 560H333L353 700Z" />
<glyph unicode="&#x172;" glyph-name="Uogonek" horiz-adv-x="719" d="M407 -167Q359 -167 332 -147T304 -91Q304 -62 323 -41T371 -8H361Q217 -8 144 60T71 262V566Q71 575 63 585T43 595H10V700H337V595H262V251Q262 211 270 185T293 142T331 119T384 112Q414
112 437 119T475 142T499 184T507 251V595H433V700H709V595H677Q667 595 658 585T649 566V262Q649 150 605 91T478 5Q452 -3 439 -20T426 -54Q426 -66 434 -73T465 -81H482V-151Q468 -159 451 -163T407 -167Z" />
<glyph unicode="&#x173;" glyph-name="uogonek" horiz-adv-x="624" d="M541 -167Q493 -167 466 -147T438 -91Q438 -56 465 -34T525 0H420Q406 0 398 13T386 68Q351 33 306 13T198 -8Q171 -8 146 -2T101 19T69 58T57 120V394Q57 402 49 410T33 419H5V526H236V182Q236
144 254 132T306 119Q324 119 344 124T384 135V419H322V526H563V127Q563 119 571 110T587 101H616V0H591Q576 -15 568 -26T560 -54Q560 -66 568 -73T599 -81H616V-151Q602 -159 585 -163T541 -167Z" />
<glyph unicode="&#x178;" glyph-name="Ydieresis" horiz-adv-x="679" d="M180 101H219Q230 101 238 111T247 131V277L61 573Q55 583 47 589T30 595H10V700H319V595H248L368 394H370L451 529Q469 560 460 577T418 595H395V700H669V595H655Q644 595 634 587T615
568L438 282V131Q438 122 447 112T466 101H506V0H180V101ZM256 717Q221 717 198 739T174 796Q174 831 197 853T256 875Q291 875 315 853T339 796Q339 761 315 739T256 717ZM455 717Q420 717 397 739T373 796Q373 831 396 853T455 875Q490 875 514 853T538 796Q538
761 514 739T455 717Z" />
<glyph unicode="&#x179;" glyph-name="Zacute" horiz-adv-x="570" d="M260 873H429V820L331 733H234L260 873ZM10 125L356 583V587H162L145 490H33V700H560V571L214 113V109H425L442 221H560V0H10V125Z" />
<glyph unicode="&#x17a;" glyph-name="zacute" horiz-adv-x="500" d="M226 700H395V647L297 560H200L226 700ZM10 112L284 417H139L122 340H23V526H488V411L213 107H367L380 183H484V0H10V112Z" />
<glyph unicode="&#x17b;" glyph-name="Zdotaccent" horiz-adv-x="570" d="M10 125L356 583V587H162L145 490H33V700H560V571L214 113V109H425L442 221H560V0H10V125ZM292 731Q254 731 229 755T203 816Q203 853 228 877T292 901Q330 901 355 877T381 816Q381 779
356 755T292 731Z" />
<glyph unicode="&#x17c;" glyph-name="zdotaccent" horiz-adv-x="500" d="M10 112L284 417H139L122 340H23V526H488V411L213 107H367L380 183H484V0H10V112ZM258 558Q220 558 195 582T169 643Q169 680 194 704T258 728Q296 728 321 704T347 643Q347 606 322 582T258 558Z" />
<glyph unicode="&#x17d;" glyph-name="Zcaron" horiz-adv-x="570" d="M152 835V873H223L294 823L365 873H429V835L358 733H221L152 835ZM10 125L356 583V587H162L145 490H33V700H560V571L214 113V109H425L442 221H560V0H10V125Z" />
<glyph unicode="&#x17e;" glyph-name="zcaron" horiz-adv-x="500" d="M118 662V700H189L260 650L331 700H395V662L324 560H187L118 662ZM10 112L284 417H139L122 340H23V526H488V411L213 107H367L380 183H484V0H10V112Z" />
<glyph unicode="&#x192;" glyph-name="florin" horiz-adv-x="388" d="M5 -6Q25 2 36 17T52 70L81 337H26V440H93L106 556Q115 636 162 674T295 712Q325 712 346 707T384 697V601H356Q326 601 309 590T289 549L275 440H359V337H263L231 70Q216 -55 100 -100H5V-6Z" />
<glyph unicode="&#x218;" glyph-name="Scommaaccent" horiz-adv-x="541" d="M193 -170Q240 -166 240 -143Q240 -134 232 -130T215 -120Q204 -113 199 -103T193 -75Q193 -50 212 -35T260 -19Q291 -19 312 -38T334 -96Q334 -217 193 -227V-170ZM258 -9Q223 -9 196
-7T146 0H13V215H140L156 116Q171 111 190 108T240 105Q345 105 345 188Q345 213 333 228T300 253T251 271T190 288Q154 298 123 313T69 352T33 411T20 495Q20 549 38 589T88 656T167 696T269 709Q311 709 339 707T385 700H503V504H378L362 588Q348 593 331 596T287
599Q238 599 212 580T186 522Q186 499 196 484T225 460T266 443T316 429Q370 415 409 398T473 357T511 299T524 217Q524 106 458 49T258 -9Z" />
<glyph unicode="&#x219;" glyph-name="scommaaccent" horiz-adv-x="462" d="M162 -170Q209 -166 209 -143Q209 -134 201 -130T184 -120Q173 -113 168 -103T162 -75Q162 -50 181 -35T229 -19Q260 -19 281 -38T303 -96Q303 -217 162 -227V-170ZM214 -7Q139 -7 92
1T11 21V151H108Q119 125 147 112T208 98Q243 98 263 110T284 146Q284 158 280 166T264 181T235 191T187 199Q144 205 112 216T58 246T25 294T14 364Q14 449 74 491T240 534Q307 534 352 527T432 509V384H337Q324 404 302 416T242 428Q169 428 169 385Q169 376
173 369T187 355T216 344T264 335Q312 329 347 319T406 290T440 243T451 171Q451 87 395 40T214 -7Z" />
<glyph unicode="&#x21a;" glyph-name="uni021A" horiz-adv-x="652" d="M258 -170Q305 -166 305 -143Q305 -134 297 -130T280 -120Q269 -113 264 -103T258 -75Q258 -50 277 -35T325 -19Q356 -19 377 -38T399 -96Q399 -217 258 -227V-170ZM163 101H202Q213 101 221
111T230 131V591H143L130 452H14V700H638V452H523L509 591H421V131Q421 122 430 112T449 101H489V0H163V101Z" />
<glyph unicode="&#x21b;" glyph-name="uni021B" horiz-adv-x="350" d="M134 -170Q181 -166 181 -143Q181 -134 173 -130T156 -120Q145 -113 140 -103T134 -75Q134 -50 153 -35T201 -19Q232 -19 253 -38T275 -96Q275 -217 134 -227V-170ZM238 -9Q197 -9 165 -2T110
21T75 66T62 138V419H5V526H62V665H240V526H338V419H240V164Q240 125 255 113T310 101H338V5Q320 0 296 -4T238 -9Z" />
<glyph unicode="&#x237;" glyph-name="uni0237" horiz-adv-x="283" d="M62 -169Q32 -169 9 -166T-33 -157V-67H-2Q36 -67 50 -53T65 -6V393Q65 401 57 410T41 419H5V526H217Q244 526 244 473V-15Q244 -102 197 -135T62 -169Z" />
<glyph unicode="&#x2c6;" glyph-name="circumflex" horiz-adv-x="400" d="M61 598L132 700H269L338 598V560H267L196 610L125 560H61V598Z" />
<glyph unicode="&#x2c7;" glyph-name="caron" horiz-adv-x="400" d="M61 662V700H132L203 650L274 700H338V662L267 560H130L61 662Z" />
<glyph unicode="&#x2d8;" glyph-name="breve" horiz-adv-x="400" d="M200 559Q169 559 146 567T106 587T78 616T61 647V703H152Q156 686 167 675T200 664Q221 664 232 675T248 703H339V647Q333 632 322 616T294 588T254 567T200 559Z" />
<glyph unicode="&#x2d9;" glyph-name="dotaccent" horiz-adv-x="400" d="M201 558Q163 558 138 582T112 643Q112 680 137 704T201 728Q239 728 264 704T290 643Q290 606 265 582T201 558Z" />
<glyph unicode="&#x2da;" glyph-name="ring" horiz-adv-x="400" d="M200 613Q222 613 235 627T249 664Q249 688 236 701T200 715Q178 715 165 702T152 664Q152 641 165 627T200 613ZM200 562Q157 562 125 589T93 664Q93 687 101 706T125 738T159 759T200 766Q221
766 240 759T275 739T298 706T307 664Q307 616 275 589T200 562Z" />
<glyph unicode="&#x2db;" glyph-name="ogonek" horiz-adv-x="400" d="M222 -167Q174 -167 147 -147T119 -91Q119 -74 126 -60T146 -34T174 -14T206 0H272Q257 -14 249 -26T241 -54Q241 -66 249 -73T280 -81H298V-151Q284 -159 266 -163T222 -167Z" />
<glyph unicode="&#x2dc;" glyph-name="tilde" horiz-adv-x="400" d="M32 639Q45 665 69 682T133 699Q150 699 167 695T201 687T232 679T256 675Q272 675 280 682T294 703H368V623Q355 598 331 581T267 563Q250 563 233 567T199 577T168 586T144 591Q128 591 120
583T107 561H32V639Z" />
<glyph unicode="&#x2dd;" glyph-name="hungarumlaut" horiz-adv-x="400" d="M78 700H220V649L151 560H58L78 700ZM256 700H397V649L328 560H236L256 700Z" />
</font>
</defs>
</svg>
